<svg width="151" height="151" viewBox="0 0 151 151" fill="none" xmlns="http://www.w3.org/2000/svg">
<path fill-rule="evenodd" clip-rule="evenodd" d="M73.7462 12.1983C73.2416 6.37363 77.5705 0.88947 84.143 0.47603C89.0435 0.14163 92.9529 2.38515 95.4518 6.70803C96.6678 8.83603 97.9081 10.9519 99.1485 13.0859C101.106 16.4543 103.076 19.8348 105.01 23.2456C105.733 24.492 106.481 25.7202 107.229 26.9544C108.724 29.4047 110.22 31.861 111.497 34.4693C115.157 41.8626 110.749 50.0098 102.517 51.092C97.8595 51.7548 93.2873 49.2619 90.6243 44.7688C88.9219 41.8626 87.2377 38.932 85.5536 36.0075C83.8694 33.077 82.1853 30.1464 80.4768 27.2341C79.6864 25.8661 78.8777 24.5164 78.0691 23.1605C77.2502 21.8112 76.4456 20.4532 75.6553 19.0869C74.4089 16.9285 73.3267 14.685 73.6611 12.2773L73.7462 12.1983ZM98.1939 74.7797C98.6925 86.3317 88.7091 96.7224 76.7376 97.2149C64.9302 97.7195 54.12 87.6632 53.8707 75.6127C53.751 63.4079 63.4594 53.3717 75.6614 53.0863C87.4688 52.6728 97.7805 62.5589 98.1939 74.7797ZM54.9529 143.763C57.2816 147.752 60.6073 150.08 65.0153 149.995L65.1005 150.08C70.2563 150.245 74.3299 147.588 76.16 143.18C77.9049 139.191 77.072 135.452 75.0777 131.871C72.1538 126.76 69.1887 121.673 66.1827 116.61L64.3526 113.509L62.8934 110.998C61.6744 108.846 60.4136 106.718 59.1117 104.614C56.4486 100.541 51.5421 98.7167 46.7206 99.7928C41.9782 100.875 38.6525 104.535 37.9046 109.436C37.4061 112.597 38.3241 115.333 39.8989 117.996L43.9238 124.915C47.5779 131.196 51.2441 137.501 54.9529 143.763ZM122.642 91.068C114.075 91.5666 108.42 81.9237 112.245 74.9439C114.963 69.8792 117.808 64.9058 120.653 59.9263C121.736 58.0354 122.818 56.1445 123.888 54.2475C125.305 51.6696 126.715 49.0917 128.217 46.5989C130.959 41.8626 135.616 39.7042 140.687 40.7803C145.764 41.8626 149.588 45.7659 150.002 51.0859C150.166 53.2504 149.588 55.7432 148.591 57.5733C143.324 67.0548 137.945 76.4734 132.455 85.8271C130.296 89.4872 126.885 91.2322 122.642 91.1471V91.068ZM1.9779 92.5637C-2.4301 100.541 3.06014 110.013 12.0403 110.013L11.9552 109.934C16.3632 109.934 19.9382 107.855 22.2669 103.781C27.3623 94.9732 32.4088 86.1368 37.4061 77.2725C38.4032 75.5275 39.151 73.5272 39.3152 71.533C39.8143 66.4352 36.7552 61.6593 31.9158 59.981C26.6749 58.157 21.3549 59.8168 18.2784 64.389C16.9408 66.4258 15.7005 68.6024 14.4845 70.7487L13.3718 72.6943L10.3014 78.0264C7.50462 82.8722 4.71998 87.6997 1.9779 92.5637ZM109.667 103.952C111.521 103.952 113.382 103.933 115.248 103.915C118.987 103.853 122.727 103.865 126.466 103.952C132.455 104.201 136.692 109.022 136.942 115.175C137.112 121.073 133.203 125.73 127.293 126.563L126.563 126.654C126.036 126.743 125.504 126.796 124.97 126.812H93.2022C90.1257 126.812 87.2985 125.9 85.1341 123.566C81.8083 119.991 80.9753 115.753 82.7203 111.266C84.4713 106.779 87.9613 104.122 92.8678 103.952C96.6044 103.866 100.342 103.853 104.079 103.915C105.952 103.933 107.812 103.952 109.667 103.952ZM13.9494 37.9592C15.1168 42.9448 19.1904 46.5199 24.3462 46.605V46.684C26.7174 46.7205 32.0435 46.6962 37.7587 46.6658C45.304 46.6293 53.512 46.5928 56.4486 46.684C61.1059 46.8543 64.4317 44.86 66.9245 41.1208C71.4176 34.4693 67.2589 24.9967 59.2758 23.9144C56.783 23.58 33.4115 23.58 24.3462 23.9144C16.8678 24.1576 12.2896 30.645 13.9494 37.9592Z" fill="#700DFF"/>
</svg>
