<?xml version="1.0" encoding="UTF-8" standalone="no"?>
<svg
   version="1.1"
   width="1080"
   height="1080"
   viewBox="0 0 1080 1080"
   xml:space="preserve"
   id="svg22"
   sodipodi:docname="image.svg"
   xmlns:inkscape="http://www.inkscape.org/namespaces/inkscape"
   xmlns:sodipodi="http://sodipodi.sourceforge.net/DTD/sodipodi-0.dtd"
   xmlns="http://www.w3.org/2000/svg"
   xmlns:svg="http://www.w3.org/2000/svg"><sodipodi:namedview
   id="namedview24"
   pagecolor="#ffffff"
   bordercolor="#000000"
   borderopacity="0.25"
   inkscape:showpageshadow="2"
   inkscape:pageopacity="0.0"
   inkscape:pagecheckerboard="0"
   inkscape:deskcolor="#d1d1d1" />
<desc
   id="desc2">Created with Fabric.js 3.6.6</desc>
<defs
   id="defs4">
</defs>
<g
   transform="matrix(1.75 0 0 1.75 538.62 538.51)"
   id="g20">
<g
   style=""
   id="g18">
		<g
   transform="matrix(1 0 0 1 -540 -540)"
   id="g8">
<rect
   style="stroke: none; stroke-width: 1; stroke-dasharray: none; stroke-linecap: butt; stroke-dashoffset: 0; stroke-linejoin: miter; stroke-miterlimit: 4; fill: rgb(255,255,255); fill-rule: nonzero; opacity: 1; visibility: hidden;"
   vector-effect="non-scaling-stroke"
   x="0"
   y="0"
   rx="0"
   ry="0"
   width="0"
   height="0"
   id="rect6" />
</g>
		<g
   transform="matrix(1 0 0 1 0 -8.5)"
   id="g12">
<path
   style="stroke: none; stroke-width: 1; stroke-dasharray: none; stroke-linecap: butt; stroke-dashoffset: 0; stroke-linejoin: miter; stroke-miterlimit: 4; fill: rgb(234,49,53); fill-rule: nonzero; opacity: 1;"
   vector-effect="non-scaling-stroke"
   transform=" translate(-147, -280.5)"
   d="M 0 0 C 12.36322164 2.52525378 19.54221069 9.59300318 26.30883789 19.78271484 C 27.2166853 21.18153043 28.11000148 22.5897608 29 24 C 30.52102323 23.85616078 32.04180897 23.70980986 33.5625 23.5625 C 34.40941406 23.48128906 35.25632813 23.40007813 36.12890625 23.31640625 C 39.43145781 22.95245159 42.71302361 22.48349838 46 22 C 46.36351562 22.92941406 46.72703125 23.85882813 47.1015625 24.81640625 C 52.71949893 38.82149779 58.48639729 43.90962289 72 50 C 72.25394531 49.26007813 72.50789062 48.52015625 72.76953125 47.7578125 C 75.22444859 42.25568031 80.15749789 37.55718361 85.625 35 C 88.95391366 34.01365521 91.55153152 33.74767304 95 34 C 100.50946554 43.05126481 103.4819177 52.27930504 105.77734375 62.58203125 C 107.60724435 67.69756808 110.63356581 70.12548212 115.125 73 C 122.00354254 77.78507307 122.48035678 85.73728514 124.10546875 93.42773438 C 124.40904297 94.79575195 124.40904297 94.79575195 124.71875 96.19140625 C 124.98075195 97.43192749 124.98075195 97.43192749 125.24804688 98.69750977 C 126.08590899 101.26305444 127.3542016 102.88530752 129 105 C 129 105.66 129 106.32 129 107 C 130.65 107.66 132.3 108.32 134 109 C 138.15891954 105.94373348 141.11333733 103.18997417 143.375 98.5 C 147.15312325 91.21274609 153.50621295 88.50091346 160.9375 85.75 C 171.08224114 81.68696046 177.04062509 73.12166577 183.38012695 64.6315918 C 187.66916598 58.95674567 192.79308635 52.75303305 200 51 C 201.66651941 50.97784538 203.33351894 50.97512715 205 51 C 205.26829974 52.80467701 205.53650876 54.60936751 205.8046875 56.4140625 C 205.97516602 57.56092529 206.14564453 58.70778809 206.32128906 59.8894043 C 206.69203501 62.39063172 207.06116195 64.89209962 207.42871094 67.39379883 C 208.52226289 74.87810531 208.52226289 74.87810531 209.7109375 82.34765625 C 211.46459825 93.21272827 213.26778041 105.02638892 207.90234375 115.05078125 C 205.84998768 119.48422576 206.52503049 123.65425306 208.125 128.1875 C 209.73659536 130.60489304 210.86668342 131.858683 213.0625 133.625 C 216.99439828 136.80398159 217.79835846 138.79015074 218.625 143.75 C 218.49649943 150.82921312 214.28352626 156.98925134 211.01757812 163.06689453 C 209.59492096 165.76953355 208.31913947 168.52941316 207.0625 171.3125 C 206.68222656 172.15425781 206.30195313 172.99601563 205.91015625 173.86328125 C 201.70034797 183.74639339 202.69724755 198.73853165 206.078125 208.76953125 C 209.0590443 216.02215223 209.0590443 216.02215223 214 222 C 219.2880896 220.60021158 221.90166753 217.27277413 225 213 C 226.61747223 210.11215408 227.88167748 207.12751176 229.125 204.0625 C 229.49117432 203.18150635 229.85734863 202.3005127 230.23461914 201.39282227 C 231.51493318 198.27141295 232.76150467 195.13824026 234 192 C 234.24913147 191.37009155 234.49826294 190.74018311 234.75494385 190.09118652 C 236.40228752 185.91832292 238.0268498 181.73729301 239.62957764 177.54708862 C 240.16145729 176.15828282 240.69641344 174.7706507 241.23468018 173.38430786 C 244.46888413 165.02402613 246.97242446 156.95794223 248 148 C 248.12387085 146.9327771 248.12387085 146.9327771 248.25024414 145.84399414 C 248.44888607 144.0013381 248.63104815 142.15692813 248.8125 140.3125 C 250.1745006 128.41566407 253.21812797 109.96769025 263 102 C 267.04075443 101.46631545 269.32143698 101.63906222 272.9375 103.5625 C 276 106 276 106 277.6953125 107.68359375 C 283.36471392 113.19880643 290.88490753 117 299 117 C 299.40839111 116.13721436 299.81678223 115.27442871 300.23754883 114.38549805 C 301.75747946 111.17879822 303.28579594 107.97615559 304.81665039 104.7746582 C 305.47746753 103.38968009 306.13601944 102.00361876 306.79223633 100.61645508 C 307.73703014 98.62030101 308.68995896 96.62821163 309.64453125 94.63671875 C 309.9352803 94.01786301 310.22602936 93.39900726 310.52558899 92.76139832 C 313.28841246 87.03601184 313.28841246 87.03601184 316 85 C 317.093125 84.79375 318.18625 84.5875 319.3125 84.375 C 323.90597789 82.66217774 325.39676546 80.69774997 327.91015625 76.59765625 C 329.67250695 72.39707125 329.5033189 68.46462502 329 64 C 337.01659634 62.87486367 344.92138585 62.90420616 353 63 C 353.19335938 62.32453125 353.38671875 61.6490625 353.5859375 60.953125 C 353.97652344 59.61507812 353.97652344 59.61507812 354.375 58.25 C 354.75785156 56.92742187 354.75785156 56.92742187 355.1484375 55.578125 C 356 53 356 53 358 49 C 362.95 49.33 367.9 49.66 373 50 C 374.19625 48.123125 375.3925 46.24625 376.625 44.3125 C 383.75969754 33.67941826 383.75969754 33.67941826 390.875 32.1875 C 392.421875 32.0946875 392.421875 32.0946875 394 32 C 394.14026239 44.11841045 393.74521291 56.20585395 393.25 68.3125 C 393.18863861 69.8333017 393.18863861 69.8333017 393.1260376 71.38482666 C 392.47762441 86.85350137 391.17127738 101.8209733 388 117 C 388.61415771 116.98259766 389.22831543 116.96519531 389.86108398 116.94726562 C 390.66876221 116.93373047 391.47644043 116.92019531 392.30859375 116.90625 C 393.10837646 116.88884766 393.90815918 116.87144531 394.73217773 116.85351562 C 397.75638201 117.04885663 399.63091896 118.16587275 402 120 C 401.50264998 125.66101343 399.93474034 129.65767947 397.25 134.625 C 389.86967034 148.86840827 386.1740067 162.02732983 385 178 C 400.29987583 180.98999652 415.39226514 182.4015538 430.9375 183.125 C 432.69989803 183.21166733 434.46226817 183.29890366 436.22460938 183.38671875 C 440.48278109 183.59768357 444.74125184 183.80102596 449 184 C 447.08739303 187.92023775 444.9399346 190.76607194 442 194 C 441.34 194 440.68 194 440 194 C 439.73574219 194.598125 439.47148438 195.19625 439.19921875 195.8125 C 436.61862597 200.51977021 432.14721145 203.46595329 427.375 205.6875 C 421.73413346 208.70353379 420.24076059 215.75493383 418.0859375 221.390625 C 415.92173779 226.47178953 415.92173779 226.47178953 413.2890625 227.98046875 C 411.94372996 228.4617043 410.58416822 228.90450761 409.21484375 229.3125 C 401.37192351 231.74698671 396.08396057 235.93585199 392 243 C 390.90610387 245.30752218 389.82362145 247.62047511 388.75 249.9375 C 381.0979981 265.78658363 364.33247367 272.51107371 349.46875 280.4140625 C 339.17862202 285.93585838 328.85400748 291.82061403 324 303 C 323.30092586 305.73572585 323.30092586 305.73572585 323 308 C 323.886875 308.12375 324.77375 308.2475 325.6875 308.375 C 329 309 329 309 331.04492188 310.01977539 C 335.52206347 311.50488143 339.90663759 311.29842663 344.59375 311.30859375 C 346.69661745 311.33374554 348.79948197 311.35914368 350.90234375 311.38476562 C 354.20718681 311.41353975 357.5119791 311.43756789 360.81689453 311.45629883 C 364.0136074 311.47794646 367.20973836 311.51737551 370.40625 311.55859375 C 371.39282593 311.55870956 372.37940186 311.55882538 373.39587402 311.5589447 C 382.07080148 311.68411292 382.07080148 311.68411292 386 315 C 387.90687389 318.52771669 388.37152314 322.0720196 389 326 C 389.95253662 326.06731323 389.95253662 326.06731323 390.92431641 326.13598633 C 393.8256693 326.34844177 396.72516374 326.58029369 399.625 326.8125 C 401.12353516 326.91788086 401.12353516 326.91788086 402.65234375 327.02539062 C 412.62647773 327.85106397 412.62647773 327.85106397 417 331 C 418.08407859 333.75229661 417.90133415 335.99069172 418 339 C 418.83660156 339.01417969 419.67320312 339.02835937 420.53515625 339.04296875 C 432.36830017 339.52782625 442.44509439 342.49729006 453 348 C 453 349.32 453 350.64 453 352 C 443.91658538 355.50807001 435.08235302 357.02691295 425.4375 358.0625 C 408.56785831 359.84429508 408.56785831 359.84429508 392.9375 366.0625 C 386.09547092 369.59274233 380.20242614 370.87245261 372.55078125 371.2265625 C 371.35219482 371.28203247 371.35219482 371.28203247 370.12939453 371.33862305 C 368.53069036 371.40335762 366.93125043 371.45231152 365.33154297 371.48364258 C 360.82995327 371.63311133 357.53187659 371.90115042 354 375 C 352.97726136 377.47061919 352.97726136 377.47061919 352.6875 380.1875 C 352.47673828 381.53908203 352.47673828 381.53908203 352.26171875 382.91796875 C 352.13216797 383.94857422 352.13216797 383.94857422 352 385 C 342.99056417 385.34850253 334.4706535 384.92618956 325.5625 383.5625 C 313.41067803 381.70879558 301.27621935 381.27879494 289 381 C 288.86722656 382.216875 288.73445313 383.43375 288.59765625 384.6875 C 288.19005578 387.94830373 287.55274496 390.89670967 286.4375 394 C 286.03337891 395.1446875 286.03337891 395.1446875 285.62109375 396.3125 C 285.31365234 397.1478125 285.31365234 397.1478125 285 398 C 282.37676656 398.51125663 279.75205403 399.00908586 277.125 399.5 C 276.39796875 399.64308594 275.6709375 399.78617187 274.921875 399.93359375 C 263.55496983 402.02749733 256.17328764 400.82194993 245.6875 395.8125 C 243.47901585 394.79307511 241.26939037 393.77611891 239.05859375 392.76171875 C 237.48827393 392.0354126 237.48827393 392.0354126 235.88623047 391.29443359 C 232.38716891 389.72515391 228.86417614 388.40424448 225.25 387.125 C 220.7665606 385.43697609 217.94351678 383.92468904 215 380 C 214.58234375 379.44441406 214.1646875 378.88882812 213.734375 378.31640625 C 210.00771382 373.06427113 206.90110415 367.42068482 203.75 361.8125 C 203.31341064 361.04010986 202.87682129 360.26771973 202.42700195 359.47192383 C 198.62038881 352.60284192 196.64385527 346.95450412 196.75 339 C 196.75749268 338.25234375 196.76498535 337.5046875 196.77270508 336.734375 C 197.35063157 306.35933362 210.37848514 279.09989489 232 258 C 252.19713433 239.10859513 279.35917353 227.74727282 304.36010742 216.52636719 C 317.03550592 211.09140726 317.03550592 211.09140726 328 203 C 326.77373901 203.57947388 326.77373901 203.57947388 325.52270508 204.1706543 C 310.9940644 211.0284481 296.45508107 217.86412553 281.80892944 224.46817017 C 279.97324831 225.29637149 278.13955662 226.12897782 276.3059082 226.96166992 C 270.93040971 229.37275895 265.7369999 231.62611758 260 233 C 263.04801736 224.20159938 270.53664306 217.44030033 276.8125 210.75 C 289.47345872 197.20317867 303.06954443 181.83824778 309 164 C 308.26136719 165.06476563 307.52273438 166.12953125 306.76171875 167.2265625 C 300.13305414 176.73212925 293.33140407 186.02421613 286 195 C 285.50467773 195.61037109 285.00935547 196.22074219 284.49902344 196.84960938 C 272.18037616 211.94484064 272.18037616 211.94484064 265 216 C 264.01 216 263.02 216 262 216 C 262.24234375 215.07703125 262.4846875 214.1540625 262.734375 213.203125 C 264.76205271 205.36270319 266.60788056 197.49295339 268.25 189.5625 C 268.51248535 188.33998535 268.51248535 188.33998535 268.78027344 187.09277344 C 270.30039432 179.57169248 270.54931453 172.55290831 269 165 C 268.93530518 165.66829834 268.87061035 166.33659668 268.80395508 167.02514648 C 265.68416498 198.241793 257.28729043 220.87661319 236.734375 244.796875 C 234.20889185 247.74032029 231.75383153 250.73621832 229.3125 253.75 C 226.64042069 257.04857037 223.89639533 260.21044346 221 263.3125 C 203.23916497 283.1919237 195.37107791 308.91814301 193 335 C 187.33243151 333.66645447 185.07890583 329.56946461 182 325 C 180.01157831 321.7042545 178.18321143 318.33486642 176.375 314.9375 C 175.86211426 313.98286865 175.34922852 313.0282373 174.82080078 312.04467773 C 173.74552737 310.03783935 172.67379361 308.02910069 171.60546875 306.01855469 C 170.04929881 303.09269015 168.47840919 300.17510789 166.90625 297.2578125 C 153.33783547 271.89181708 144.11639808 247.73537305 139.39794922 219.38818359 C 139.0699146 217.41957337 138.72648719 215.45353452 138.37890625 213.48828125 C 134.71424065 191.75596199 133.94124373 170.76997589 137.72460938 149.05200195 C 138.08867554 146.68432367 138.08867554 146.68432367 138 143 C 137.53753292 144.33190519 137.08030845 145.6656307 136.625 147 C 136.36976563 147.7425 136.11453125 148.485 135.8515625 149.25 C 133.51407509 156.79858321 132.58153564 163.41332425 132.5625 171.3125 C 132.55935791 172.41464844 132.55621582 173.51679688 132.55297852 174.65234375 C 132.74051002 188.37324205 134.99136667 201.82453539 137.13656616 215.34895325 C 138.3038806 222.78244397 139.15008912 230.09233533 139.0625 237.625 C 139.05347656 238.64851562 139.04445313 239.67203125 139.03515625 240.7265625 C 139.02355469 241.47679687 139.01195312 242.22703125 139 243 C 128.83459669 239.17056725 120.7527501 221.92948241 115 213 C 114.33991943 211.97688721 114.33991943 211.97688721 113.66650391 210.93310547 C 99.14675495 188.34625252 85.42760004 165.24839751 72 142 C 71.07574219 140.40260986 71.07574219 140.40260986 70.1328125 138.77294922 C 65.74430785 131.18822498 61.36760086 123.59677945 57 116 C 56.47164551 115.0812207 55.94329102 114.16244141 55.39892578 113.21582031 C 44.70808271 94.60901409 34.03289691 75.97198175 24 57 C 25.63288356 62.88032472 28.55271342 67.89075282 31.5 73.1875 C 37.2422803 83.6397498 42.75362965 94.19714641 48.1875 104.8125 C 49.73942972 107.84252662 51.29152285 110.87246949 52.84375 113.90234375 C 53.212155 114.62164566 53.58056 115.34094757 53.96012878 116.08204651 C 57.03134431 122.0733427 60.15412824 128.03606162 63.30541992 133.9855957 C 67.0848787 141.132282 70.79127557 148.31645936 74.5 155.5 C 78.70264214 163.63904414 82.91258462 171.77358693 87.1875 179.875 C 87.57405762 180.60831543 87.96061523 181.34163086 88.35888672 182.09716797 C 90.05677068 185.31743854 91.75544364 188.53728591 93.45654297 191.75585938 C 98.69781691 201.68319461 103.92330233 211.61283038 108.75 221.75 C 109.25297607 222.79534912 109.25297607 222.79534912 109.76611328 223.86181641 C 111.12396269 226.76270979 112 228.75609305 112 232 C 111.67 231.34 111.34 230.68 111 230 C 110.12988281 229.71898437 109.25976562 229.43796875 108.36328125 229.1484375 C 104.5345969 227.84108187 101.4863772 225.90167741 98.1875 223.625 C 97.54151855 223.18800781 96.89553711 222.75101563 96.22998047 222.30078125 C 92.0202556 219.43716002 87.87650133 216.48675926 83.74194336 213.51611328 C 56.43326384 193.95817304 24.32831711 179 -10 179 C -8.7625 179.1959375 -7.525 179.391875 -6.25 179.59375 C 49.73479647 189.02040441 96.976025 220.22003125 132 264 C 132.99294221 265.20335139 133.98786509 266.40507015 134.984375 267.60546875 C 143.11018155 277.42666724 150.68746031 287.56101547 158 298 C 158.45503906 298.64291992 158.91007812 299.28583984 159.37890625 299.94824219 C 164.62204676 307.38645869 169.27164639 315.03457553 173.5625 323.0625 C 173.99264404 323.86034912 174.42278809 324.65819824 174.8659668 325.48022461 C 177.04366567 329.66156588 178.5648469 333.22858444 179 338 C 172.2755958 336.89763866 165.96692541 335.09649693 159.5 333 C 133.98813738 324.85614809 111.40698849 327.80354309 86.28515625 336.0078125 C 74.09670473 339.84703201 61.66218713 341.52758306 49 343 C 51.64 343.99 54.28 344.98 57 346 C 55.67458908 349.97623276 54.32528819 350.23374159 50.625 352.125 C 30.62779357 362.02514132 7.08166887 368.67534424 -15 372 C -5.8937392 371.76408651 2.98551875 371.05188377 11.9375 369.3125 C 12.67323242 369.17618164 13.40896484 369.03986328 14.16699219 368.89941406 C 30.33775689 365.56629852 44.87872478 358.95270532 59.4375 351.375 C 83.95141825 338.70277515 83.95141825 338.70277515 96.9375 336.25 C 98.18402344 336.00765625 99.43054688 335.7653125 100.71484375 335.515625 C 104 335 104 335 108 335 C 106.48150287 339.17353813 103.86266778 340.67979544 100.1875 343 C 91.70779809 348.3823162 91.70779809 348.3823162 85.6875 356.25 C 85.17574219 357.14203125 84.66398438 358.0340625 84.13671875 358.953125 C 83.76160156 359.62859375 83.38648438 360.3040625 83 361 C 83.33 361.33 83.66 361.66 84 362 C 85.04027344 360.4221875 85.04027344 360.4221875 86.1015625 358.8125 C 88.76012464 355.10357261 91.6357076 352.57298551 95.375 350 C 95.98077881 349.57775146 96.58655762 349.15550293 97.21069336 348.72045898 C 114.23176387 337.2078114 133.0361525 332.53009444 153.4609375 335.50390625 C 156.39121289 336.17686976 159.1640894 337.00381611 162 338 C 162.99257813 338.3403125 163.98515625 338.680625 165.0078125 339.03125 C 184.9111864 346.56500789 195.06010343 361.25318558 204.5 379.375 C 204.85054443 380.02847412 205.20108887 380.68194824 205.56225586 381.35522461 C 208.36431601 386.90216002 208.79203925 391.24718067 207.0390625 397.33984375 C 206.57242187 398.52707031 206.10578125 399.71429688 205.625 400.9375 C 205.36605957 401.60789307 205.10711914 402.27828613 204.84033203 402.96899414 C 203.1538738 407.27845771 201.34957822 411.53273128 199.515625 415.78125 C 195.39766037 425.35687816 191.46385427 434.55572866 189.41455078 444.80224609 C 187.61925733 453.5225478 184.23212895 461.72901832 181 470 C 177.08279623 468.55611602 174.25685535 466.8183462 171.0390625 464.21875 C 168.18711734 462.5141391 165.20080862 461.82502943 162 461 C 151.16412388 478.2099209 142.51592407 495.83549996 134.30322266 514.41333008 C 133.88793053 515.35014114 133.88793053 515.35014114 133.46424866 516.30587769 C 132.70088206 518.02915637 131.94032721 519.75367978 131.17993164 521.47827148 C 130 524 130 524 129 525 C 123.29069994 525.58556924 118.34318207 523.77402092 113 522 C 112.79375 522.78375 112.5875 523.5675 112.375 524.375 C 105.91643416 541.40212812 91.81866364 552.82753972 76 561 C 75.34 561 74.68 561 74 561 C 74.33656952 550.67667741 76.44478478 541.33568686 79.125 531.4375 C 79.70552483 529.28502204 80.2824536 527.13192021 80.84762573 524.97535706 C 81.35416427 523.04288814 81.87419273 521.11396985 82.39501953 519.18530273 C 82.95797949 516.22124356 83.13127232 514.74342554 82 512 C 80.5197141 510.24087909 78.92546161 508.67580151 77.27734375 507.07421875 C 75.35689551 503.95569271 75.72454789 501.61986308 76 498 C 77.02384513 495.49801848 78.04906568 493.32666237 79.359375 490.9921875 C 79.70502502 490.3448465 80.05067505 489.69750549 80.40679932 489.0305481 C 81.50766237 486.97104956 82.62668031 484.92232512 83.75 482.875 C 93.3170109 465.93139204 93.3170109 465.93139204 96.3125 447 C 96.28800781 445.96875 96.26351562 444.9375 96.23828125 443.875 C 96.01483903 441.17904136 95.59606937 438.6362743 95 436 C 92.91554969 436.26209804 90.83249376 436.53528492 88.75 436.8125 C 87.58984375 436.96332031 86.4296875 437.11414063 85.234375 437.26953125 C 74.69791077 438.94783764 64.74589959 442.31428733 54.76464844 445.96875 C 52.63846505 446.74508351 50.50714035 447.50582913 48.375 448.265625 C 34.94671305 453.1117899 22.92931519 458.61364696 12 468 C 10.34121227 469.32244368 8.67483638 470.63544119 7 471.9375 C 6.278125 472.50339844 5.55625 473.06929687 4.8125 473.65234375 C 1.43084798 476.16671864 -0.79902238 476.32315212 -5 476 C -5.94875 475.505 -6.8975 475.01 -7.875 474.5 C -13.00208691 472.03899828 -17.31508546 472.53519599 -22.625 474 C -35.95775503 477.59449036 -52.35552199 474.60427841 -66 474 C -64.41802434 469.70071704 -62.69021058 467.44192557 -59.3125 464.3125 C -47.86185987 453.15842321 -40.59571421 439.82474889 -38 424 C -38 423.01 -38 422.02 -38 421 C -39.051875 420.525625 -40.10375 420.05125 -41.1875 419.5625 C -41.77917969 419.29566406 -42.37085938 419.02882813 -42.98046875 418.75390625 C -48.91190345 416.53965693 -55.15470274 416.71239312 -61.40625 416.5703125 C -66.01051766 416.38614179 -69.37450757 416.13231883 -73 413 C -73.391875 411.98292969 -73.78375 410.96585937 -74.1875 409.91796875 C -75.64886431 406.88800998 -75.64886431 406.88800998 -78.01953125 406.28369141 C -80.67933572 405.83288596 -83.31241044 405.54593078 -86 405.3125 C -87.90033787 405.09900986 -89.80009705 404.88030093 -91.69921875 404.65625 C -92.6123584 404.55183594 -93.52549805 404.44742187 -94.46630859 404.33984375 C -99.14027942 403.71292456 -103.51077428 402.40707075 -108 401 C -108 396.38 -108 391.76 -108 387 C -109.2065625 386.76925781 -110.413125 386.53851563 -111.65625 386.30078125 C -122.86492038 384.05834495 -130.04106558 381.62950532 -138.5625 373.875 C -144.67721856 368.31426449 -151.05672801 366.53101614 -159 365 C -159 363.68 -159 362.36 -159 361 C -157.99646484 360.5978125 -157.99646484 360.5978125 -156.97265625 360.1875 C -152.30380356 358.28235742 -147.68011029 356.36067743 -143.15625 354.1328125 C -116.45114112 341 -116.45114112 341 -107 341 C -106.85304688 339.98679687 -106.85304688 339.98679687 -106.703125 338.953125 C -106.55359375 338.06109375 -106.4040625 337.1690625 -106.25 336.25 C -106.11078125 335.36828125 -105.9715625 334.4865625 -105.828125 333.578125 C -104.73476787 330.17427734 -103.90864257 329.15622209 -101 327 C -97.34707556 325.99756773 -93.64396437 325.55113106 -89.890625 325.078125 C -88.80867859 324.92841248 -87.72673218 324.77869995 -86.61199951 324.62445068 C -83.15993504 324.15047176 -79.70526681 323.69997707 -76.25 323.25 C -73.90734247 322.93253253 -71.56489104 322.61354024 -69.22265625 322.29296875 C -63.48404384 321.5109445 -57.74311857 320.74817135 -52 320 C -52.27263672 319.07775635 -52.54527344 318.1555127 -52.82617188 317.20532227 C -53.84476073 313.74788714 -54.84725523 310.28595011 -55.84521484 306.82250977 C -56.27743316 305.33069582 -56.71387376 303.8400979 -57.15478516 302.35083008 C -61.7583113 286.78130799 -61.7583113 286.78130799 -61 279 C -59.115242 277.115242 -56.01485534 277.78169986 -53.5 277.75 C -25.65873641 277.88550473 2.57042019 289.43318674 28.35400391 299.11132812 C 34.62014527 301.21584506 40.57761747 301.18330296 47.125 301.1875 C 48.10726562 301.19974609 49.08953125 301.21199219 50.1015625 301.22460938 C 56.09856104 301.23644556 61.65699436 300.69168536 67.52294922 299.4309082 C 70.06486152 298.98871668 72.4253661 298.92715473 75 299 C 73.25805096 295.76642845 71.50503058 292.53898751 69.75 289.3125 C 69.01330078 287.94448242 69.01330078 287.94448242 68.26171875 286.54882812 C 64.2447339 279.1843559 61.07993602 274.00812053 53.3125 270.3125 C 52.63912598 269.98145264 51.96575195 269.65040527 51.27197266 269.30932617 C 43.57419386 265.62515871 35.5950101 262.57928648 27.60668945 259.58911133 C 21.92461591 257.40972857 17.18988054 255.50212467 13 251 C 13.0625 247.4375 13.0625 247.4375 14 244 C 14.33609771 242.66736081 14.67010242 241.33418757 15 240 C 13.37455515 239.49204849 11.74908922 238.98416437 10.12353516 238.4765625 C 8.69057085 238.02845226 7.25796111 237.57920684 5.82568359 237.12890625 C 2.13332555 235.9697618 -1.56206952 234.82736123 -5.2734375 233.73046875 C -26.89833601 227.29020399 -26.89833601 227.29020399 -32 219 C -32.60851775 216.68126898 -33.04780588 214.42904655 -33.34765625 212.05078125 C -34.24736447 209.22235721 -35.473746 208.51231532 -38 207 C -39.87626835 206.18269642 -41.77466759 205.41512644 -43.6875 204.6875 C -53.08330511 200.84272745 -59.83678274 195.44668928 -67.20703125 188.5234375 C -70.65349533 185.40956925 -74.32174048 182.67913771 -78.1015625 179.984375 C -80.54875535 177.42640388 -80.54359135 175.44205753 -81 172 C -80.40388916 171.94624207 -79.80777832 171.89248413 -79.19360352 171.83709717 C -72.96195374 171.27191827 -66.7327234 170.68414445 -60.50439453 170.08349609 C -58.18299417 169.86257977 -55.86104651 169.64733513 -53.53857422 169.43798828 C -50.1907638 169.13520731 -46.84548424 168.81174863 -43.5 168.484375 C -42.4694751 168.39565125 -41.4389502 168.30692749 -40.37719727 168.21551514 C -34.01179161 167.56754519 -29.56472686 166.15992513 -24 163 C -21.25984842 162.08661614 -19.45073181 161.84193746 -16.61328125 161.75390625 C -15.3284082 161.70459961 -15.3284082 161.70459961 -14.01757812 161.65429688 C -12.23383096 161.59376538 -10.44997309 161.5364014 -8.66601562 161.48242188 C -3.16447325 161.26466105 1.70484865 160.52258718 7 159 C 8.22677808 150.02310009 5.12184283 145.13987084 0 138 C -3.02714932 133.37104072 -3.02714932 133.37104072 -2.8125 130.4375 C -2 128 -2 128 -0.9375 126.125 C 1.55536825 120.47449864 -0.44103269 114.7243005 -2.5 109.25 C -2.89179443 108.17310913 -2.89179443 108.17310913 -3.29150391 107.07446289 C -6.55326495 98.25937857 -10.2698781 89.62472349 -14 81 C -11.50090425 80.2053846 -9.00078857 79.41425597 -6.5 78.625 C -5.80390625 78.40328125 -5.1078125 78.1815625 -4.390625 77.953125 C 0.370951 76.45411033 5.14676492 75.16958593 10 74 C 10.56261759 67.69868297 9.4970295 62.90458947 7.5 57 C 5.53783484 51.13379577 4.31080177 46.17901857 5 40 C 5.05027344 38.77796875 5.05027344 38.77796875 5.1015625 37.53125 C 5.38150909 32.87529615 5.38150909 32.87529615 6 31 C 8.03808594 29.88452148 8.03808594 29.88452148 10 29 C 9.69707031 28.19256348 9.39414063 27.38512695 9.08203125 26.55322266 C 7.96125795 23.56118902 6.84340703 20.56808491 5.72753906 17.57421875 C 5.24368589 16.27788194 4.75866515 14.9819803 4.27246094 13.68652344 C 3.57441411 11.82601495 2.88089053 9.96381135 2.1875 8.1015625 C 1.76855469 6.98088379 1.34960938 5.86020508 0.91796875 4.70556641 C 0 2 0 2 0 0 Z"
   stroke-linecap="round"
   id="path10" />
</g>
		<g
   transform="matrix(1 0 0 1 90.68 192.5)"
   id="g16">
<path
   style="stroke: none; stroke-width: 1; stroke-dasharray: none; stroke-linecap: butt; stroke-dashoffset: 0; stroke-linejoin: miter; stroke-miterlimit: 4; fill: rgb(232,49,53); fill-rule: nonzero; opacity: 1;"
   vector-effect="non-scaling-stroke"
   transform=" translate(-26.68, -96.5)"
   d="M 0 0 C 4.59531357 0.27031256 7.50015859 0.76918448 10.70336914 4.19506836 C 13.62747215 8.26546819 15.27110588 13.06329046 17.125 17.6875 C 18.09051135 20.03932308 19.05667582 22.39087812 20.0234375 24.7421875 C 20.51424805 25.94584961 21.00505859 27.14951172 21.51074219 28.38964844 C 22.94313618 31.86214719 24.41785229 35.3123925 25.9140625 38.7578125 C 41.35315591 74.33267291 53.06562697 112.6142192 53.375 151.625 C 53.38330841 152.31549438 53.39161682 153.00598877 53.400177 153.71740723 C 53.50004139 165.0421306 52.6204317 176.04108498 45 185 C 36.16151203 193 36.16151203 193 34 193 C 33.970271 191.13142334 33.970271 191.13142334 33.93994141 189.22509766 C 33.02218259 133.29796455 31.07672616 80.23230403 7.22607422 28.56323242 C 2.811792 18.93510256 -0.51683237 10.68120238 0 0 Z"
   stroke-linecap="round"
   id="path14" />
</g>
</g>
</g>
</svg>
