<?xml version="1.0" standalone="no"?>
<!DOCTYPE svg PUBLIC "-//W3C//DTD SVG 20010904//EN"
 "http://www.w3.org/TR/2001/REC-SVG-20010904/DTD/svg10.dtd">
<svg version="1.0" xmlns="http://www.w3.org/2000/svg"
 width="1890.000000pt" height="1890.000000pt" viewBox="0 0 1890.000000 1890.000000"
 preserveAspectRatio="xMidYMid meet">
<metadata>
Created by potrace 1.14, written by Peter Selinger 2001-2017
</metadata>
<g transform="translate(0.000000,1890.000000) scale(0.100000,-0.100000)"
fill="#000000" stroke="none">
<path d="M11181 14894 c-17 -9 -31 -10 -43 -3 -13 7 -18 6 -18 -3 0 -9 -3 -9
-10 2 -7 11 -10 11 -10 2 0 -9 -5 -10 -17 -3 -12 7 -21 5 -30 -7 -12 -15 -12
-15 -6 2 4 12 3 17 -4 13 -20 -13 -132 -15 -137 -3 -2 6 -5 7 -5 1 -1 -7 -29
-10 -76 -8 -56 3 -75 0 -75 -9 0 -9 -3 -9 -10 2 -5 8 -12 11 -16 7 -4 -4 -13
-2 -21 4 -9 8 -13 8 -13 0 0 -10 -63 -6 -82 5 -4 2 -10 -1 -14 -7 -4 -8 -3 -9
4 -5 7 4 12 2 12 -3 0 -13 -17 -15 -24 -3 -2 4 -44 6 -93 5 -104 -4 -112 -4
-138 0 -11 3 -30 0 -43 -4 -16 -6 -21 -6 -17 2 9 13 -27 8 -37 -6 -5 -6 -8 -6
-8 2 0 12 -45 12 -57 0 -3 -4 -12 -2 -19 4 -9 7 -19 7 -33 0 -13 -7 -22 -8
-26 -1 -3 5 -11 10 -16 10 -6 0 -7 -4 -4 -10 4 -6 -2 -7 -17 -2 -19 6 -102 8
-118 2 -15 -5 -60 -5 -60 0 0 9 -32 6 -47 -3 -6 -4 -15 -2 -19 4 -4 8 -9 7
-15 -2 -7 -12 -9 -12 -9 0 0 11 -3 11 -15 1 -12 -10 -15 -10 -15 0 0 9 -4 9
-12 2 -7 -5 -22 -6 -33 -2 -11 4 -28 3 -39 -2 -10 -6 -21 -6 -25 -2 -8 12 -31
16 -31 6 0 -9 -47 -8 -56 1 -4 3 -14 3 -23 -1 -19 -9 -42 -9 -56 0 -6 4 -17 3
-25 -2 -7 -4 -24 -4 -37 1 -14 5 -22 5 -19 0 4 -5 -12 -7 -36 -4 -24 3 -47 4
-53 4 -5 -1 -167 -2 -360 -4 -192 -1 -356 -7 -364 -11 -10 -6 -12 -5 -7 2 5 8
-1 12 -14 12 -12 0 -19 -4 -15 -9 3 -6 -6 -7 -22 -2 -34 9 -44 8 -62 -3 -10
-6 -12 -5 -7 2 4 7 1 12 -8 12 -8 0 -17 -6 -19 -12 -3 -7 -6 -8 -6 -3 -1 11
-179 12 -206 1 -8 -3 -15 -1 -15 5 0 6 -6 6 -18 0 -13 -7 -23 -6 -30 1 -9 9
-12 9 -12 -1 0 -11 -3 -11 -15 -1 -12 10 -15 10 -15 -1 0 -9 -3 -10 -8 -4 -10
14 -52 14 -52 1 0 -6 -5 -4 -10 4 -8 12 -10 12 -10 1 0 -11 -3 -11 -15 -1 -9
7 -15 8 -15 2 0 -12 -33 -10 -42 3 -5 6 -8 5 -8 -4 0 -11 -3 -11 -15 -1 -8 7
-15 9 -15 4 0 -10 -77 -10 -87 -1 -3 4 -12 -1 -20 -11 -8 -9 -11 -11 -7 -3 5
10 -3 12 -40 10 -25 -2 -46 0 -46 5 0 6 -7 1 -16 -10 -8 -10 -13 -14 -9 -7 4
9 -11 12 -62 10 -37 -1 -73 2 -80 6 -6 4 -15 2 -19 -4 -5 -8 -3 -9 6 -4 9 6
11 4 6 -4 -6 -9 -13 -8 -27 5 -12 11 -19 13 -19 5 0 -8 -7 -10 -20 -6 -13 4
-20 2 -20 -7 0 -9 -3 -9 -8 -2 -8 13 -91 13 -111 0 -9 -6 -12 -5 -8 1 4 6 0
14 -9 17 -10 4 -13 2 -8 -6 5 -7 -1 -9 -20 -6 -15 3 -26 1 -26 -6 0 -6 -4 -5
-9 2 -4 8 -12 14 -16 14 -4 0 -12 -6 -16 -14 -7 -10 -9 -10 -9 -1 0 13 -26 13
-46 0 -6 -3 -14 -3 -18 0 -11 11 -36 12 -36 2 0 -6 -5 -7 -10 -4 -6 4 -8 11
-5 16 3 5 -1 6 -9 3 -9 -3 -13 -11 -9 -18 4 -6 0 -6 -9 2 -11 9 -18 10 -23 2
-3 -6 -12 -7 -18 -3 -18 11 -51 10 -59 -2 -5 -7 -11 -7 -15 0 -12 15 -47 19
-38 5 5 -9 2 -9 -11 -2 -23 12 -36 13 -49 2 -6 -5 -17 -5 -25 0 -8 5 -21 5
-32 -1 -10 -5 -18 -6 -18 -1 0 5 -7 9 -15 9 -8 0 -15 -5 -15 -11 0 -6 -4 -6
-12 2 -8 8 -17 8 -31 1 -15 -8 -18 -8 -12 1 6 9 3 9 -13 1 -14 -8 -23 -8 -27
-1 -5 8 -11 8 -20 0 -10 -8 -15 -8 -20 0 -5 8 -10 8 -20 0 -9 -8 -15 -8 -20 0
-4 7 -12 7 -26 0 -14 -8 -19 -7 -19 1 0 8 -4 9 -13 0 -10 -7 -17 -7 -24 0 -7
7 -13 7 -17 1 -4 -7 -17 -7 -35 -2 -16 4 -31 6 -34 4 -7 -7 -67 -12 -67 -5 0
4 -15 6 -32 4 -76 -8 -138 -8 -138 0 0 4 -10 3 -22 -4 -20 -11 -21 -12 -2 -22
10 -6 23 -16 27 -24 4 -7 14 -13 21 -13 8 0 16 -7 20 -15 3 -8 13 -15 21 -15
9 0 13 -4 10 -10 -3 -5 0 -10 8 -10 8 0 18 -7 21 -16 3 -8 10 -12 16 -9 5 3
10 2 10 -3 0 -5 16 -20 35 -33 19 -13 35 -30 35 -37 0 -7 4 -11 9 -8 5 3 21
-6 37 -20 16 -14 41 -36 57 -49 15 -14 27 -22 27 -18 0 3 9 -4 20 -17 11 -13
20 -20 20 -17 0 4 9 -1 19 -10 11 -9 17 -21 14 -26 -3 -6 -1 -7 5 -3 7 4 12 2
12 -3 0 -6 5 -11 11 -11 6 0 16 -6 23 -12 7 -7 25 -22 40 -33 15 -11 43 -35
63 -53 19 -18 38 -30 43 -27 5 3 11 -4 15 -15 3 -11 13 -20 21 -20 8 0 14 -4
14 -10 0 -5 7 -10 16 -10 8 0 12 -4 9 -10 -3 -5 -1 -10 5 -10 6 0 18 -6 25
-12 8 -7 28 -24 45 -38 17 -14 42 -35 55 -47 13 -13 29 -23 35 -23 5 0 10 -4
10 -10 0 -5 7 -10 16 -10 8 0 12 -4 9 -10 -3 -5 0 -10 7 -10 8 0 20 -9 28 -19
7 -11 17 -18 22 -15 4 3 8 -2 8 -11 0 -9 5 -13 10 -10 6 3 13 -1 16 -9 3 -9
10 -14 14 -11 5 3 17 -6 28 -20 11 -14 23 -25 26 -25 7 0 39 -25 72 -57 13
-13 27 -23 31 -23 5 0 16 -8 25 -17 8 -10 28 -27 42 -38 15 -11 33 -26 41 -32
7 -7 19 -13 25 -13 6 0 8 -4 5 -10 -3 -5 0 -10 9 -10 8 0 16 -3 18 -8 2 -4 23
-23 48 -42 25 -19 54 -43 64 -52 11 -10 24 -18 28 -18 5 0 6 -4 3 -10 -3 -5 0
-10 8 -10 8 0 28 -13 45 -30 18 -16 36 -30 42 -30 5 0 10 -4 10 -8 0 -5 11
-15 25 -22 14 -7 25 -20 25 -27 0 -8 4 -12 9 -9 4 3 28 -12 52 -34 24 -21 47
-36 51 -34 4 3 8 -2 8 -10 0 -9 5 -16 11 -16 7 0 22 -11 35 -26 13 -14 24 -23
24 -20 0 6 13 -5 65 -49 13 -11 38 -31 56 -45 18 -14 38 -30 45 -37 6 -7 14
-9 18 -6 3 4 6 -1 6 -10 0 -10 7 -17 15 -17 7 0 19 -8 24 -17 6 -10 11 -15 11
-10 0 4 14 -6 31 -23 17 -16 36 -27 42 -23 6 3 7 1 3 -5 -4 -7 -3 -12 1 -12 5
0 21 -11 36 -25 15 -14 27 -23 27 -20 0 3 6 0 14 -7 8 -7 12 -16 9 -20 -2 -5
5 -8 17 -8 12 0 18 -4 15 -10 -6 -9 8 -14 28 -11 5 1 6 -3 2 -8 -3 -6 3 -15
14 -21 11 -6 32 -21 47 -35 15 -14 30 -22 35 -19 5 3 9 -2 9 -11 0 -8 8 -19
18 -22 9 -4 22 -12 28 -17 7 -6 28 -24 47 -40 20 -16 39 -42 42 -57 4 -16 11
-29 16 -29 6 0 7 -4 4 -10 -3 -5 -1 -10 5 -10 6 0 8 -4 5 -10 -3 -5 -2 -10 4
-10 6 0 8 -6 5 -13 -3 -8 2 -19 10 -26 8 -7 12 -19 9 -27 -3 -8 0 -14 6 -14 6
0 11 -6 11 -12 0 -7 11 -35 25 -62 13 -27 22 -53 19 -58 -3 -4 0 -8 7 -8 7 0
10 -3 6 -6 -3 -4 1 -13 9 -21 8 -9 13 -21 10 -28 -3 -8 2 -16 10 -19 9 -3 13
-10 10 -15 -4 -5 0 -15 7 -23 8 -7 12 -19 9 -26 -2 -6 3 -15 12 -18 8 -3 12
-12 10 -19 -3 -7 0 -16 5 -20 6 -3 9 -11 6 -16 -4 -5 -1 -9 4 -9 6 0 10 -3 10
-7 -3 -13 23 -73 30 -73 4 0 8 -7 9 -15 1 -8 3 -22 4 -30 1 -8 5 -15 9 -15 4
0 10 -13 14 -30 4 -16 11 -30 16 -30 6 0 8 -4 4 -9 -3 -5 -1 -12 5 -16 6 -4 8
-11 5 -16 -4 -5 -1 -9 4 -9 6 0 11 -8 11 -18 0 -10 5 -23 12 -30 7 -7 8 -12 3
-12 -6 0 -4 -4 3 -9 7 -4 15 -14 17 -22 8 -37 18 -59 26 -59 5 0 6 -7 3 -15
-4 -8 -1 -15 7 -15 7 0 9 -3 6 -7 -4 -3 -2 -12 4 -20 6 -7 8 -13 5 -13 -4 0 0
-7 9 -16 9 -9 14 -23 11 -30 -3 -8 -2 -14 2 -14 9 0 32 -49 32 -67 0 -7 4 -13
8 -13 4 0 14 -20 21 -45 7 -25 17 -45 23 -45 5 0 6 -4 3 -10 -3 -5 -1 -10 4
-10 6 0 10 -3 9 -7 -4 -16 14 -53 23 -48 5 3 6 -1 3 -10 -4 -8 -1 -22 6 -30 7
-8 10 -21 6 -30 -3 -8 0 -14 6 -12 7 1 13 -2 13 -8 2 -14 23 -64 45 -107 10
-20 16 -39 13 -42 -4 -3 -1 -6 5 -6 7 0 12 -7 12 -15 0 -9 9 -34 20 -55 11
-22 17 -40 13 -40 -5 0 0 -5 10 -11 9 -6 15 -14 12 -19 -3 -5 -1 -11 5 -15 6
-4 8 -11 5 -16 -4 -5 -1 -9 5 -9 6 0 9 -4 5 -9 -3 -5 0 -15 7 -23 7 -7 15 -22
16 -33 2 -11 8 -22 13 -25 5 -3 10 -15 12 -25 2 -11 12 -38 22 -60 11 -22 19
-42 20 -45 0 -3 11 -24 23 -46 11 -23 18 -44 15 -48 -4 -3 -1 -6 5 -6 7 0 12
-7 12 -15 0 -8 4 -23 9 -33 5 -9 18 -36 30 -58 11 -23 21 -49 21 -58 0 -9 5
-16 11 -16 5 0 8 -4 4 -9 -3 -5 2 -16 10 -25 8 -8 14 -19 13 -23 -1 -4 5 -22
15 -39 9 -17 13 -34 10 -38 -4 -3 -1 -6 5 -6 7 0 12 -7 12 -15 0 -14 18 -53
30 -65 3 -3 6 -9 7 -15 4 -25 8 -40 13 -45 11 -11 33 -66 31 -77 -1 -7 2 -13
8 -13 5 0 15 -17 21 -37 7 -21 16 -42 21 -48 5 -5 9 -17 9 -27 0 -10 5 -18 10
-18 6 0 10 -6 10 -13 0 -7 9 -32 20 -55 11 -22 20 -46 20 -52 0 -5 4 -10 10
-10 5 0 9 -3 8 -7 -3 -15 14 -63 23 -63 5 0 8 -3 6 -8 -3 -11 35 -95 48 -104
6 -5 4 -8 -4 -8 -11 0 -9 -4 5 -15 10 -8 16 -15 12 -15 -4 0 -1 -12 7 -27 8
-15 11 -31 8 -36 -3 -6 -1 -7 5 -3 8 5 12 0 12 -13 0 -12 5 -21 10 -21 6 0 10
-9 10 -19 0 -11 5 -23 10 -26 6 -4 8 -10 5 -15 -3 -5 2 -15 11 -24 8 -9 13
-20 10 -25 -3 -5 1 -14 9 -21 8 -7 15 -21 15 -31 0 -11 5 -19 11 -19 5 0 7 -5
4 -10 -3 -6 1 -17 9 -26 14 -14 18 -28 15 -50 0 -4 5 -10 11 -14 7 -4 13 -19
13 -33 1 -14 4 -24 6 -21 6 5 31 -45 31 -62 0 -8 5 -14 12 -14 6 0 9 -3 5 -6
-3 -3 7 -29 21 -57 14 -29 25 -58 24 -64 -2 -7 2 -13 9 -13 6 0 9 -7 5 -15 -3
-8 2 -19 12 -24 9 -6 13 -11 9 -11 -4 0 -2 -10 5 -22 6 -13 13 -29 14 -37 2
-8 9 -18 16 -22 7 -5 9 -9 4 -9 -5 0 -1 -10 10 -22 10 -12 13 -18 7 -14 -9 5
-11 2 -7 -8 3 -9 11 -16 17 -16 6 0 7 -3 4 -6 -3 -4 -1 -16 5 -28 7 -11 11
-24 10 -28 -1 -5 2 -8 6 -8 5 0 9 -7 10 -15 1 -8 3 -22 4 -30 1 -8 5 -12 10
-9 8 5 10 0 12 -28 1 -7 7 -19 14 -26 7 -8 10 -17 7 -22 -3 -5 0 -10 5 -12 6
-2 12 -10 13 -18 2 -8 10 -30 20 -49 9 -19 17 -40 17 -48 0 -7 5 -13 11 -13 5
0 8 -4 4 -9 -3 -5 0 -13 6 -16 5 -4 8 -14 5 -22 -3 -8 -1 -11 4 -8 6 3 10 -3
10 -14 0 -12 5 -21 11 -21 6 0 9 -6 6 -14 -3 -8 1 -20 8 -26 8 -7 12 -16 9
-21 -3 -5 0 -9 5 -9 6 0 10 -3 9 -7 -1 -5 5 -21 12 -38 7 -16 14 -32 15 -35 0
-3 6 -15 13 -27 7 -13 10 -23 7 -23 -4 0 1 -7 10 -16 13 -14 14 -19 3 -25 -10
-7 -10 -9 0 -9 11 0 29 -32 30 -54 0 -5 5 -12 10 -15 6 -3 12 -15 14 -26 1
-11 5 -22 8 -25 3 -3 11 -16 18 -29 11 -18 11 -21 1 -15 -7 4 -4 -6 7 -22 11
-16 26 -42 33 -59 7 -16 19 -43 27 -58 10 -20 10 -26 1 -22 -6 4 -3 -1 7 -9
11 -9 17 -16 13 -16 -4 0 -1 -13 7 -29 9 -16 12 -32 8 -36 -4 -3 0 -5 8 -3 8
1 16 -4 16 -12 1 -8 3 -19 4 -25 1 -5 2 -13 1 -17 0 -5 4 -8 11 -8 6 0 9 -3 5
-6 -3 -3 3 -23 14 -42 10 -20 19 -45 19 -54 0 -10 4 -18 8 -18 12 0 33 -50 27
-61 -4 -5 -3 -9 2 -9 9 0 33 -48 33 -68 0 -7 5 -10 12 -6 7 4 8 3 4 -5 -4 -6
-1 -23 8 -36 9 -13 16 -31 16 -40 0 -8 5 -15 11 -15 5 0 7 -4 4 -10 -3 -5 -2
-10 3 -10 5 0 9 -6 9 -12 1 -25 8 -43 23 -55 8 -7 11 -13 7 -13 -5 0 1 -16 13
-35 12 -19 19 -35 15 -35 -3 0 0 -10 7 -22 7 -13 11 -26 10 -30 -1 -5 3 -8 9
-8 5 0 7 -4 4 -10 -3 -5 -1 -10 5 -10 7 0 10 -7 6 -15 -3 -8 -1 -15 4 -15 6 0
10 -9 10 -20 0 -11 5 -20 10 -20 6 0 10 -6 10 -13 0 -12 29 -80 50 -119 6 -10
10 -25 10 -33 0 -8 5 -15 11 -15 5 0 8 -4 4 -9 -3 -5 0 -15 7 -23 7 -7 14 -20
16 -28 2 -8 7 -17 11 -20 4 -3 6 -12 6 -20 0 -8 3 -18 7 -21 5 -3 11 -16 13
-30 3 -13 9 -25 15 -27 5 -2 10 -15 10 -28 0 -14 4 -22 10 -19 6 3 10 -3 10
-15 0 -11 7 -32 16 -45 9 -14 12 -25 8 -25 -5 0 -3 -4 5 -9 7 -5 14 -20 14
-35 0 -14 3 -23 8 -20 8 5 13 -10 10 -28 0 -5 3 -8 9 -8 5 0 10 -8 10 -17 0
-10 7 -27 15 -37 8 -10 12 -23 9 -27 -3 -5 0 -9 6 -9 7 0 10 -6 7 -14 -3 -8 1
-20 9 -27 8 -7 13 -18 10 -26 -3 -7 1 -13 10 -13 8 0 13 -4 10 -8 -3 -5 1 -20
9 -35 7 -14 11 -28 8 -31 -3 -3 2 -8 11 -12 9 -3 13 -10 10 -15 -3 -6 -1 -16
5 -23 7 -8 10 -20 9 -27 -2 -8 3 -13 10 -11 8 1 11 -2 8 -7 -4 -5 -2 -12 3
-16 6 -3 8 -12 4 -20 -3 -8 0 -15 7 -15 6 0 9 -4 6 -9 -4 -5 -1 -11 5 -13 6
-2 12 -15 12 -30 1 -14 5 -24 10 -21 4 2 8 -1 8 -6 1 -6 2 -17 3 -23 1 -7 7
-12 14 -11 6 2 9 -4 5 -13 -3 -8 4 -29 17 -46 12 -17 18 -28 12 -24 -6 4 -6
-3 1 -19 7 -14 16 -25 20 -25 5 0 5 -4 2 -10 -3 -5 -1 -10 5 -10 6 0 8 -4 5
-10 -3 -5 0 -10 8 -10 7 0 23 -9 34 -19 12 -11 24 -17 27 -14 3 4 6 1 6 -5 0
-7 3 -11 8 -10 8 3 64 -32 74 -47 4 -5 8 -6 8 -1 0 5 8 2 18 -7 10 -10 22 -14
25 -10 4 3 7 -1 7 -10 0 -10 8 -17 20 -17 11 0 20 -4 20 -10 0 -5 7 -10 16
-10 8 0 12 -5 9 -10 -4 -6 -3 -9 2 -8 14 4 53 -13 53 -23 0 -5 18 -16 40 -25
22 -9 40 -20 40 -25 0 -5 7 -9 15 -9 8 0 15 -4 15 -10 0 -5 6 -10 13 -10 7 0
23 -9 34 -19 12 -11 24 -17 27 -14 3 4 14 -3 24 -15 11 -12 22 -19 26 -15 3 3
6 1 6 -5 0 -7 7 -12 15 -12 9 0 18 -7 21 -15 4 -8 10 -13 14 -10 4 3 19 -4 32
-15 14 -11 28 -16 32 -13 3 3 6 -1 6 -11 0 -11 7 -16 18 -14 9 2 16 -3 14 -10
-1 -6 1 -11 5 -10 21 4 116 -56 105 -66 -3 -4 1 -4 11 0 11 4 19 0 23 -10 3
-9 9 -14 13 -12 4 3 20 -6 35 -19 16 -14 33 -22 37 -19 5 3 9 0 9 -6 0 -6 4
-9 9 -6 5 3 12 -1 15 -10 3 -8 10 -12 16 -9 5 3 10 -1 10 -9 0 -9 9 -16 20
-16 11 0 20 -5 20 -11 0 -5 5 -7 10 -4 6 3 10 3 10 -2 0 -4 25 -21 55 -38 30
-16 55 -33 55 -37 0 -4 7 -8 15 -8 8 0 15 -4 15 -10 0 -5 9 -10 20 -10 12 0
20 -7 20 -17 0 -14 2 -15 9 -5 7 11 9 11 14 -2 4 -9 13 -16 22 -16 8 0 15 -4
15 -10 0 -5 7 -10 15 -10 8 0 15 -5 15 -11 0 -6 7 -8 16 -5 8 3 13 2 10 -3 -3
-4 15 -18 39 -30 25 -12 45 -26 45 -31 0 -5 10 -12 22 -16 12 -3 28 -13 36
-20 7 -8 18 -12 23 -9 5 4 9 2 9 -3 0 -5 20 -20 45 -33 25 -13 45 -28 45 -32
0 -5 5 -5 10 -2 6 3 10 3 10 -2 0 -4 12 -17 27 -27 16 -12 23 -14 18 -5 -5 8
3 5 16 -7 13 -12 39 -30 58 -40 19 -10 43 -27 53 -37 10 -10 23 -15 28 -12 6
4 10 2 10 -2 0 -5 16 -17 35 -27 19 -11 35 -23 35 -28 0 -5 5 -6 10 -3 6 3 10
1 10 -5 0 -6 4 -9 9 -6 5 3 11 -1 15 -9 3 -8 15 -15 26 -15 11 0 23 -7 26 -15
4 -8 10 -12 15 -9 5 3 9 0 9 -5 0 -6 7 -11 15 -11 8 0 15 -4 15 -10 0 -5 7
-10 15 -10 8 0 15 -5 15 -11 0 -5 5 -7 10 -4 6 3 10 3 10 -2 0 -4 13 -17 28
-28 27 -19 27 -19 12 0 -14 19 -14 19 10 0 14 -11 27 -22 30 -25 10 -10 45
-31 63 -36 9 -4 17 -10 17 -15 0 -5 7 -9 15 -9 9 0 18 -7 21 -15 4 -8 15 -15
25 -15 10 0 19 -4 19 -9 0 -10 39 -27 53 -23 4 1 6 -4 5 -10 -2 -7 3 -12 10
-10 7 1 15 -5 18 -13 3 -8 9 -13 14 -10 4 2 16 -4 27 -15 12 -10 24 -16 27
-13 3 4 6 2 6 -4 0 -5 18 -18 40 -28 22 -10 40 -22 40 -27 0 -5 4 -7 9 -4 5 3
12 -1 15 -10 3 -8 10 -12 16 -9 5 3 10 1 10 -4 0 -6 7 -11 15 -11 8 0 15 -4
15 -10 0 -5 6 -10 13 -10 7 0 23 -9 35 -20 12 -11 24 -20 28 -20 4 0 13 -8 21
-17 8 -10 12 -12 8 -5 -3 6 -3 12 0 12 4 0 13 -6 20 -12 38 -34 71 -53 88 -50
4 1 6 -3 5 -10 -2 -6 6 -14 17 -16 11 -2 25 -11 31 -20 9 -12 13 -12 19 -2 5
9 4 11 -3 6 -7 -4 -12 -2 -12 3 0 6 5 11 12 11 7 0 5 5 -4 13 -9 6 -18 21 -20
32 -2 11 -5 22 -8 25 -12 12 -30 51 -30 65 0 8 -4 15 -10 15 -5 0 -7 7 -4 15
4 8 1 15 -7 15 -7 0 -9 3 -6 7 4 3 -1 12 -11 20 -9 8 -11 11 -3 7 10 -5 12 -3
5 7 -5 8 -9 16 -10 19 0 3 -9 23 -19 45 -10 22 -19 43 -19 47 -1 3 -4 10 -8
14 -5 4 -8 16 -8 26 0 10 -4 18 -10 18 -5 0 -10 7 -10 15 0 8 -4 23 -9 33 -22
40 -54 118 -54 130 0 6 -4 12 -9 12 -5 0 -6 5 -3 10 3 6 1 10 -4 10 -6 0 -11
9 -11 20 0 11 -5 20 -11 20 -5 0 -7 5 -3 11 3 6 2 14 -4 18 -7 4 -13 18 -14
31 -2 14 -11 32 -20 41 -10 9 -15 19 -11 22 3 4 0 13 -6 21 -7 8 -9 21 -5 27
4 8 3 9 -4 5 -8 -5 -12 0 -12 13 0 11 -4 23 -10 26 -5 3 -10 15 -10 25 0 10
-5 20 -10 22 -6 2 -12 13 -13 26 0 12 -5 22 -10 22 -4 0 -6 4 -2 9 3 5 1 12
-5 16 -6 4 -8 11 -5 16 4 5 3 9 -2 9 -4 0 -13 11 -20 25 -6 14 -7 23 -3 20 4
-3 -5 20 -22 50 -16 30 -26 55 -21 55 4 0 3 4 -3 8 -11 8 -50 103 -46 115 1 4
-2 7 -8 7 -5 0 -10 6 -10 13 0 6 -7 25 -15 41 -8 15 -12 33 -8 39 3 6 1 7 -5
3 -8 -4 -12 0 -12 11 0 10 -7 28 -15 39 -8 12 -11 24 -8 28 3 3 2 6 -3 6 -5 0
-11 10 -11 22 -1 13 -7 24 -13 26 -5 2 -10 12 -10 22 0 10 -4 22 -10 25 -5 3
-10 15 -10 26 0 10 -5 19 -10 19 -6 0 -9 3 -8 8 1 4 -3 17 -10 28 -6 12 -9 24
-5 27 3 3 -2 14 -11 23 -10 9 -15 22 -12 29 2 7 -4 22 -14 33 -10 11 -17 22
-14 25 3 3 -4 20 -15 38 -11 18 -18 36 -15 41 3 4 0 8 -5 8 -6 0 -10 3 -9 8 2
4 -10 36 -27 72 -16 36 -30 67 -30 70 -4 15 -18 48 -31 71 -7 14 -11 29 -7 33
3 3 1 6 -6 6 -7 0 -10 4 -6 9 3 6 -3 14 -12 20 -14 8 -15 10 -3 11 12 0 12 2
2 9 -7 4 -14 14 -16 22 -1 8 -8 25 -16 39 -15 27 -17 31 -19 56 0 8 -5 12 -11
9 -5 -3 -7 0 -4 8 3 8 0 18 -5 22 -6 3 -9 11 -6 16 4 5 1 9 -4 9 -6 0 -11 9
-11 19 0 11 -7 26 -15 34 -8 8 -11 18 -7 21 3 4 2 10 -3 14 -11 8 -36 69 -38
90 0 6 -4 12 -8 12 -7 0 -20 34 -24 65 -1 10 -8 21 -14 23 -6 2 -11 10 -11 18
0 7 -9 30 -20 49 -11 20 -15 33 -8 29 7 -4 5 1 -4 12 -9 10 -20 31 -23 47 -4
15 -12 27 -19 27 -7 0 -6 4 2 9 11 7 10 9 -3 15 -9 3 -13 10 -10 16 3 5 1 10
-6 10 -7 0 -9 3 -6 7 4 3 2 12 -4 20 -6 7 -8 13 -4 13 5 0 0 9 -10 20 -10 11
-15 23 -12 26 4 4 -2 19 -13 34 -11 15 -17 30 -13 34 3 3 1 6 -5 6 -6 0 -9 7
-6 15 4 8 1 15 -7 15 -7 0 -10 3 -6 6 3 4 -5 27 -19 51 -13 24 -22 48 -19 53
3 5 -2 15 -10 23 -8 9 -15 20 -15 26 0 6 -4 19 -9 29 -5 9 -20 40 -32 69 -12
29 -26 50 -32 46 -5 -3 -4 4 2 16 7 12 8 21 2 21 -9 0 -35 58 -32 73 0 4 -4 7
-10 7 -5 0 -7 4 -4 10 3 5 1 10 -4 10 -6 0 -10 3 -9 8 3 12 -25 82 -34 82 -4
0 -5 7 -2 15 4 8 1 15 -6 15 -6 0 -9 4 -6 9 3 4 -1 17 -9 27 -8 10 -15 27 -15
37 0 9 -4 17 -9 17 -6 0 -8 9 -6 20 3 13 -2 20 -12 20 -9 0 -13 6 -9 15 3 8 0
20 -7 27 -7 7 -14 22 -15 33 -2 11 -7 25 -12 30 -4 6 -13 27 -20 48 -6 20 -15
35 -20 32 -5 -3 -7 3 -6 12 2 10 -4 24 -12 32 -9 10 -11 16 -4 19 7 2 6 9 -4
20 -8 9 -13 20 -12 23 2 3 -3 13 -11 22 -7 10 -10 17 -5 17 5 0 5 4 -1 8 -11
8 -57 110 -58 130 0 6 -4 12 -8 12 -4 0 -13 20 -20 45 -7 25 -16 45 -20 45 -7
0 -23 56 -22 77 0 7 -4 11 -10 10 -6 -1 -11 3 -12 8 0 6 -4 16 -9 23 -4 7 -6
16 -3 19 3 3 -3 15 -14 26 -12 14 -15 23 -8 28 7 4 5 8 -6 13 -9 3 -14 10 -11
15 4 5 0 15 -7 23 -8 7 -12 19 -9 26 2 6 -1 12 -7 12 -6 0 -10 3 -9 8 1 4 -4
20 -10 35 -7 16 -12 33 -12 38 0 5 -4 9 -10 9 -5 0 -10 7 -10 15 0 9 -9 35
-20 57 -11 23 -20 48 -20 55 0 8 -4 12 -9 9 -4 -3 -7 6 -5 19 1 14 -2 25 -7
25 -11 0 -41 69 -34 80 3 5 1 11 -5 15 -8 5 -40 69 -40 80 0 2 139 8 180 7 14
0 34 -1 45 -1 62 -1 105 4 105 14 0 5 4 4 9 -4 8 -13 12 -13 27 0 11 9 15 9
10 2 -4 -7 -3 -13 3 -13 5 0 12 6 14 13 4 9 6 8 6 -2 1 -10 4 -11 15 -2 10 9
16 9 21 1 5 -8 10 -8 20 0 9 7 15 8 19 1 4 -7 15 -7 30 -1 13 5 27 6 30 2 10
-10 37 -11 30 -1 -6 11 25 7 45 -5 9 -6 12 -5 8 1 -4 6 49 10 140 12 81 1 150
4 155 7 4 3 8 -1 8 -8 0 -10 2 -10 8 -1 8 12 54 9 75 -4 6 -3 7 -1 3 6 -6 8 2
11 28 8 20 -3 39 0 42 5 3 4 10 6 15 2 16 -10 59 -12 53 -3 -3 5 0 9 5 9 6 0
11 -6 11 -12 0 -9 4 -8 10 2 5 8 10 10 10 4 0 -6 7 -11 15 -11 8 0 12 4 9 9
-7 11 3 10 28 -3 15 -8 19 -8 14 0 -4 6 -2 11 3 11 6 0 11 -5 11 -11 0 -5 6
-7 12 -3 20 13 52 12 67 0 9 -7 12 -7 8 0 -4 7 32 11 114 12 66 0 124 4 129 7
6 3 10 0 10 -7 0 -9 3 -9 10 2 9 13 10 13 10 0 0 -9 3 -11 8 -5 4 6 26 10 50
9 23 0 42 4 42 10 0 8 3 8 8 0 7 -11 82 -14 82 -3 0 7 45 3 59 -5 5 -4 12 -2
16 4 4 7 12 7 24 0 10 -5 20 -7 22 -5 12 11 59 13 59 2 0 -8 3 -8 8 -2 4 6 16
11 27 11 11 0 23 -5 27 -11 5 -7 8 -7 8 1 0 6 45 10 130 10 71 -1 130 3 130 8
0 5 6 3 13 -3 8 -6 16 -8 19 -5 3 2 18 7 33 10 19 3 24 1 19 -7 -5 -8 -3 -9 5
-4 7 4 34 8 60 9 26 1 53 6 61 11 10 6 12 4 6 -10 -5 -15 -4 -16 9 -5 8 7 15
9 15 5 0 -4 7 -2 16 6 9 8 18 9 22 3 6 -8 27 -11 35 -4 1 1 83 3 183 4 99 2
186 6 192 10 7 4 12 3 12 -3 0 -6 11 -6 29 -1 19 5 33 4 40 -3 8 -8 11 -8 11
0 0 11 53 8 73 -4 7 -4 5 2 -3 12 -9 11 -10 16 -3 11 22 -13 52 -15 59 -4 4 7
9 6 14 -2 6 -9 12 -9 30 0 15 8 20 8 16 1 -9 -14 36 -10 46 4 5 6 8 5 8 -3 0
-9 5 -10 18 -3 13 7 23 6 30 -1 7 -7 12 -8 12 -2 0 8 96 11 125 4 6 -1 15 -1
20 0 34 8 61 7 74 -3 10 -8 13 -8 8 -1 -4 8 4 13 24 16 16 3 32 1 34 -3 3 -4
20 -3 39 1 24 5 37 4 40 -4 3 -7 5 -7 5 2 1 10 6 10 22 1 15 -8 19 -8 15 0 -4
6 -2 11 3 11 6 0 11 -6 11 -12 0 -8 3 -9 8 -3 4 6 27 10 52 9 25 0 51 5 59 10
11 8 13 8 8 0 -4 -8 2 -11 18 -10 14 0 25 6 25 11 0 6 4 4 9 -3 7 -11 11 -11
22 3 8 9 22 25 32 36 9 10 15 19 12 19 -3 0 -1 6 5 13 40 47 50 61 50 71 0 6
9 17 20 24 12 7 18 17 15 22 -4 6 1 13 9 16 9 3 14 10 11 14 -3 4 2 11 11 14
8 3 13 10 10 14 -3 5 3 16 12 25 27 25 42 45 42 57 0 5 5 10 11 10 5 0 8 4 4
9 -3 6 4 15 15 21 11 6 20 17 20 24 0 7 11 26 25 42 14 16 25 33 25 37 0 5 6
15 13 22 29 33 37 45 37 55 0 5 4 10 8 10 5 0 15 12 23 28 8 15 24 37 37 50
12 13 22 28 22 34 0 6 10 19 22 29 11 11 17 19 12 19 -5 0 0 7 10 15 11 8 17
15 12 15 -4 0 9 21 29 46 19 26 35 51 35 56 0 5 5 6 10 3 6 -4 9 -3 8 2 -4 11
42 86 59 96 7 5 11 12 8 17 -3 4 2 10 10 14 8 3 15 12 15 21 0 8 5 15 11 15 5
0 7 5 4 10 -3 6 -2 10 4 10 5 0 20 17 32 38 13 20 27 39 31 40 4 2 8 10 8 17
0 7 7 16 16 19 9 4 14 9 11 12 -3 4 -1 11 4 18 39 46 49 60 49 67 0 4 6 14 13
21 7 7 26 34 43 60 17 26 35 44 39 40 5 -4 5 -2 1 5 -3 6 4 21 16 32 12 12 18
21 13 21 -5 0 0 6 11 14 10 8 19 19 19 24 0 5 10 22 22 38 12 16 22 32 23 37
0 4 8 15 18 25 9 10 24 29 32 42 8 13 23 31 32 41 9 9 14 19 12 22 -2 2 7 16
20 30 14 15 22 27 18 27 -4 0 2 7 12 15 11 8 16 15 11 15 -4 0 2 9 15 20 13
11 20 20 16 20 -4 0 6 18 23 39 17 21 31 42 31 45 0 7 10 20 37 51 7 7 13 18
13 24 0 5 8 16 18 23 9 7 18 21 20 31 3 14 -2 18 -20 16 -13 -2 -29 0 -35 4
-7 5 -13 4 -13 -1 0 -6 -8 -8 -17 -6 -43 10 -771 9 -765 -1 4 -6 1 -6 -9 1 -8
6 -58 10 -116 9 -65 0 -103 3 -103 10 0 6 -3 7 -8 0 -9 -12 -84 -16 -76 -4 7
13 -10 11 -23 -2 -8 -8 -13 -8 -17 0 -5 8 -13 8 -27 1 -13 -8 -19 -7 -19 0 0
6 -8 5 -20 -2 -14 -9 -23 -10 -28 -3 -8 12 -32 13 -49 2 -8 -5 -13 -3 -13 3 0
8 -6 8 -20 0 -14 -7 -20 -7 -20 0 0 5 -5 10 -11 10 -5 0 -8 -3 -6 -7 3 -5 -6
-8 -19 -8 -13 0 -24 3 -24 8 0 4 -5 7 -11 7 -5 0 -7 -6 -3 -12 6 -10 5 -10 -7
-1 -12 10 -18 10 -29 0 -10 -10 -11 -9 -5 3 8 13 7 13 -8 1 -14 -11 -17 -11
-17 0 0 12 -2 12 -9 0 -7 -10 -10 -10 -13 -1 -3 10 -9 10 -25 1 -15 -8 -24 -8
-28 -1 -5 8 -11 8 -20 0 -10 -8 -15 -8 -20 0 -5 8 -11 7 -23 -2 -9 -7 -13 -8
-10 -3 4 7 -20 11 -72 11 -43 0 -77 -3 -75 -7 2 -3 -2 -6 -10 -6 -8 0 -12 4
-9 9 8 13 -10 10 -25 -4 -11 -10 -13 -10 -7 0 4 7 2 12 -6 12 -8 0 -20 -6 -27
-12 -8 -7 -11 -8 -8 -3 4 7 -28 11 -93 11 -70 1 -97 -2 -93 -10 5 -8 3 -8 -8
0 -8 6 -61 11 -126 12 -62 0 -117 3 -123 7 -5 3 -10 2 -10 -4 0 -5 -8 -8 -18
-6 -23 4 -84 8 -97 5 -11 -1 -177 1 -243 3 -23 1 -42 -2 -42 -8 0 -7 -3 -7 -8
0 -9 13 -145 13 -154 0 -5 -7 -8 -7 -8 0 0 7 -40 10 -107 9 -72 -1 -110 2
-115 10 -5 7 -8 8 -8 0 0 -15 -70 -17 -70 -1 0 7 -3 8 -8 2 -10 -14 -42 -18
-42 -5 0 6 -5 8 -12 3 -20 -12 -38 -12 -38 -1 0 7 -4 7 -12 1 -7 -6 -21 -9
-30 -8 -10 2 -18 -2 -19 -8 0 -7 -4 -3 -9 8 -5 11 -9 14 -9 6 -1 -10 -4 -11
-15 -2 -10 9 -16 9 -21 1 -5 -8 -11 -8 -21 1 -11 9 -14 9 -14 0 0 -8 -5 -9
-19 -1 -13 7 -22 7 -26 0 -3 -5 -11 -10 -16 -10 -6 0 -8 4 -5 8 6 10 -45 9
-62 -2 -7 -4 -12 -2 -12 6 0 9 -3 9 -10 -2 -5 -8 -10 -10 -10 -4 0 12 -29 12
-48 0 -6 -4 -12 -3 -12 2 0 5 -7 9 -15 9 -8 0 -12 -4 -9 -9 3 -4 1 -8 -5 -8
-5 0 -12 4 -16 10 -3 6 -15 6 -30 0 -16 -6 -27 -6 -31 1 -4 8 -9 7 -15 -2 -6
-10 -9 -10 -9 -2 0 9 -7 10 -25 3 -14 -5 -27 -6 -30 0 -5 9 -43 6 -53 -5 -3
-2 -11 0 -19 6 -10 9 -13 8 -13 -2 0 -11 -2 -11 -9 0 -8 12 -12 12 -24 2 -9
-7 -18 -8 -21 -2 -7 11 -25 9 -45 -3 -10 -6 -12 -5 -7 2 4 7 1 12 -9 12 -10 0
-13 -5 -9 -12 5 -7 3 -8 -7 -2 -22 13 -100 14 -92 0 5 -8 3 -8 -8 0 -9 7 -81
10 -199 10 -113 -1 -188 3 -192 9 -5 7 -8 7 -8 0 0 -11 -100 -12 -118 -2 -6 4
-14 3 -17 -3 -5 -8 -11 -7 -21 1 -8 6 -14 7 -14 2 0 -6 -18 -7 -45 -3 -25 4
-45 4 -45 1 0 -3 -31 -4 -70 -1 -38 3 -70 2 -70 -3 0 -4 -4 -6 -9 -2 -17 10
-71 13 -77 4 -3 -5 -13 -5 -22 -1 -9 4 -33 7 -52 6 -19 -1 -41 3 -49 9 -12 9
-13 9 -7 -1 6 -10 -9 -12 -68 -8 -47 2 -76 0 -76 -6 0 -7 -4 -7 -12 -1 -7 6
-30 9 -50 8 -22 -1 -38 3 -38 9 0 7 -4 6 -8 -2 -7 -10 -15 -10 -37 -2 -24 9
-26 8 -16 -3 9 -12 7 -13 -14 -9 -14 2 -22 9 -18 15 4 6 1 7 -8 2 -21 -14 -60
-15 -53 -3 5 7 2 8 -7 3 -21 -14 -60 -15 -53 -3 5 7 2 8 -7 2 -18 -11 -39 -12
-60 -2 -9 4 -19 4 -23 1 -10 -10 -36 -12 -36 -4 0 4 -7 8 -15 8 -8 0 -12 -4
-9 -9 3 -4 1 -8 -5 -8 -5 0 -13 5 -16 10 -4 6 -12 7 -18 3 -20 -12 -37 -12
-37 0 0 7 -5 5 -10 -3 -9 -13 -10 -13 -10 0 0 13 -1 13 -10 0 -8 -12 -10 -12
-10 -1 0 11 -3 11 -16 0 -12 -10 -17 -10 -23 0 -10 16 -12 16 -37 3 -12 -6
-26 -7 -34 -2 -9 5 -19 5 -27 -2 -9 -7 -13 -7 -13 2 0 10 -3 10 -15 0 -12 -10
-15 -10 -15 0 0 9 -3 10 -13 1 -10 -7 -17 -7 -24 0 -8 8 -17 7 -33 -1 -18 -10
-21 -9 -15 1 6 9 3 10 -11 5 -10 -5 -23 -8 -29 -7 -66 6 -113 6 -129 -2 -14
-7 -16 -6 -11 4 6 9 2 11 -12 7 -17 -5 -23 2 -34 36 -7 22 -19 47 -26 54 -7 8
-11 17 -8 22 3 5 -4 25 -15 45 -11 19 -20 42 -20 50 0 8 -4 15 -9 15 -6 0 -8
9 -6 20 2 13 -2 20 -11 20 -8 0 -13 4 -10 8 3 5 -1 20 -9 35 -8 15 -11 27 -8
27 3 0 0 7 -7 15 -7 8 -9 15 -4 15 5 0 2 6 -6 13 -14 11 -19 22 -24 52 -1 6
-6 17 -11 25 -13 19 -36 81 -37 98 -1 6 -5 12 -9 12 -7 0 -22 52 -19 65 0 3
-6 13 -15 21 -8 9 -15 24 -15 35 0 10 -4 19 -9 19 -5 0 -12 7 -15 16 -3 8 -2
12 3 9 5 -3 -1 15 -15 40 -13 26 -24 53 -24 61 0 7 -5 14 -11 14 -5 0 -8 4 -5
9 3 4 -1 16 -8 27 -8 10 -12 24 -9 31 3 7 0 13 -7 13 -6 0 -8 5 -5 10 3 6 1
10 -4 10 -6 0 -11 12 -11 26 0 14 -4 23 -10 19 -6 -3 -10 5 -10 19 0 14 -4 28
-10 31 -5 3 -10 15 -10 26 0 10 -4 19 -9 19 -5 0 -12 7 -15 16 -4 10 -2 13 6
8 7 -4 3 6 -9 22 -11 16 -18 34 -16 41 2 6 -1 14 -6 18 -6 3 -11 15 -11 26 0
11 -6 22 -14 25 -8 3 -12 12 -10 19 3 7 1 16 -5 20 -6 3 -11 15 -11 26 0 10
-3 19 -8 19 -4 0 -12 17 -19 38 -6 20 -22 60 -34 87 -13 28 -22 53 -21 58 1 4
-3 7 -9 7 -5 0 -8 4 -4 9 3 5 -1 15 -8 23 -8 7 -12 18 -10 24 2 7 -3 19 -12
28 -9 9 -14 16 -10 16 3 0 -1 13 -9 29 -15 27 -14 29 7 33 12 2 115 3 229 3
132 0 208 4 208 10 0 7 3 7 8 0 4 -5 43 -10 87 -10 44 0 83 5 87 10 5 6 8 4 8
-4 0 -11 4 -10 16 5 8 10 13 14 10 8 -4 -7 6 -14 24 -16 17 -3 30 -1 30 3 0 5
11 4 25 -1 16 -6 26 -6 31 1 4 8 9 7 15 -2 7 -11 9 -11 9 1 0 13 1 13 10 0 5
-8 10 -10 10 -3 0 6 9 9 22 5 16 -4 19 -2 13 9 -5 8 2 5 15 -6 22 -19 23 -19
16 -1 -5 14 -3 16 6 9 13 -10 30 -13 66 -13 9 1 47 1 84 2 46 1 65 4 61 12 -4
6 1 4 12 -4 21 -17 24 -17 36 2 7 10 9 10 9 0 0 -9 5 -10 18 -3 13 7 23 6 30
-1 9 -9 12 -9 12 2 0 10 3 11 11 3 8 -8 20 -8 36 -2 13 5 22 6 19 1 -5 -9 77
-7 93 2 6 4 11 3 11 -3 0 -7 8 -7 25 -1 15 6 26 6 30 -1 4 -5 12 -6 18 -2 17
11 107 10 107 -1 0 -4 8 -2 17 5 14 12 16 12 8 0 -6 -10 -4 -12 6 -5 19 11
209 13 209 2 0 -5 7 -2 16 6 8 9 21 13 27 9 18 -11 87 -9 87 2 0 6 4 5 8 -2 5
-7 13 -9 21 -4 8 5 27 5 42 1 19 -6 29 -5 29 2 0 7 5 6 14 -1 11 -9 15 -9 19
1 4 10 8 10 16 -2 8 -12 11 -12 11 -1 0 11 3 11 15 1 10 -9 15 -9 15 -1 0 6 7
11 16 11 14 0 15 -2 3 -17 -13 -16 -12 -16 8 -2 13 9 38 14 59 12 21 -1 44 3
53 10 8 7 12 7 9 2 -4 -6 12 -10 42 -10 30 0 46 3 42 10 -4 7 -1 7 9 0 16 -12
39 -13 56 -2 6 4 15 2 19 -4 4 -8 9 -7 15 2 5 8 9 9 9 3 0 -7 15 -9 45 -4 25
4 45 3 45 -2 0 -5 5 -6 11 -2 19 11 329 12 329 0 0 -6 5 -4 10 5 8 13 18 15
50 9 27 -5 40 -4 40 4 0 6 5 4 10 -4 9 -13 11 -13 20 0 9 13 10 13 10 0 0 -12
2 -13 9 -1 7 11 9 11 14 0 4 -10 6 -10 6 -1 1 6 6 12 12 12 5 0 7 -4 4 -10 -4
-7 2 -7 19 0 17 6 26 6 30 -3 3 -9 5 -9 5 0 1 7 8 10 16 7 8 -4 15 -1 15 6 0
6 5 8 10 5 6 -4 7 -12 3 -18 -5 -9 -3 -9 8 -1 8 6 22 10 31 9 10 -2 20 1 24 6
3 5 11 6 17 2 16 -10 107 -10 107 0 0 4 8 3 18 -2 11 -6 24 -6 34 0 11 6 19 5
23 -1 5 -8 11 -8 20 0 9 8 15 8 20 0 4 -7 13 -7 27 1 16 8 19 8 13 -1 -5 -9
-2 -9 11 -3 21 11 64 10 82 -1 6 -3 13 -2 17 4 3 5 13 10 21 10 10 0 12 -5 8
-12 -6 -10 -5 -10 8 -1 8 7 29 11 46 9 18 -2 32 1 32 7 0 8 3 8 11 0 7 -7 21
-8 39 -3 20 6 30 4 34 -3 3 -8 5 -8 5 1 1 10 6 10 22 1 15 -8 19 -8 15 0 -4 6
-2 11 3 11 6 0 11 -6 11 -12 0 -8 3 -9 8 -3 4 6 18 10 32 9 14 0 31 4 39 10
10 7 13 7 9 1 -7 -12 172 -12 191 -1 6 4 11 2 11 -4 0 -6 5 -8 13 -3 18 11 71
10 79 -2 5 -6 8 -5 8 3 0 8 8 10 26 6 18 -5 25 -3 20 4 -4 6 2 8 14 5 11 -3
20 -10 20 -17 0 -6 4 -5 9 3 10 16 49 22 57 9 3 -4 14 -4 24 2 13 7 21 7 25 0
4 -6 11 -7 17 -4 6 4 52 8 102 8 50 1 97 5 104 10 7 4 12 2 12 -4 0 -7 6 -8
17 -2 9 6 29 6 45 2 17 -5 30 -5 34 2 4 6 10 5 15 -3 6 -9 9 -10 9 -2 0 6 9
11 20 10 11 -1 20 -5 20 -10 0 -4 5 -5 10 -2 6 4 8 10 5 15 -3 5 8 5 25 0 21
-6 30 -5 30 3 0 7 4 6 10 -3 5 -8 10 -10 10 -5 0 6 34 10 83 9 45 0 88 4 95 9
7 5 12 6 12 0 0 -5 9 -9 20 -10 11 -1 20 3 20 8 0 6 7 6 19 -1 11 -5 22 -6 25
-2 6 11 36 9 55 -3 10 -5 12 -4 7 3 -4 7 -1 12 8 12 8 0 18 -5 22 -12 5 -7 11
-5 21 7 9 13 13 15 13 5 0 -11 3 -11 12 -2 7 7 17 8 30 1 10 -5 18 -6 18 -2 0
4 34 8 75 8 41 -1 75 3 75 8 0 6 5 6 13 1 11 -8 32 -10 47 -4 25 9 55 8 62 -2
6 -10 8 -10 8 1 0 7 6 11 15 7 8 -3 15 -1 15 5 0 6 7 6 20 -1 11 -6 20 -7 20
-2 0 5 21 8 48 7 26 -1 50 3 55 9 4 7 10 8 15 1 10 -14 36 -12 55 3 9 8 18 9
21 3 4 -5 19 -6 34 -3 15 4 41 7 57 6 17 -1 33 4 37 10 5 7 8 7 8 -3 0 -11 3
-11 15 -1 12 10 15 10 15 -1 0 -9 3 -10 8 -4 4 6 25 11 47 12 22 1 58 5 80 9
22 3 55 7 72 8 18 0 33 4 33 9 0 4 5 7 11 7 5 0 7 -5 3 -11 -3 -6 5 -3 20 6
14 10 26 14 26 11 0 -4 9 -2 20 4 15 8 20 8 20 -2 0 -8 5 -6 11 5 6 9 14 15
18 13 4 -3 14 5 21 19 11 20 10 26 -4 40 -9 9 -16 14 -16 10 0 -3 -12 6 -27
20 -16 14 -32 23 -38 22 -5 -2 -20 7 -32 20 -13 13 -23 21 -23 17 0 -4 -8 0
-18 9 -10 10 -22 14 -25 10 -4 -3 -7 -2 -7 4 0 6 -13 16 -30 23 -16 7 -27 16
-24 21 2 5 -7 11 -21 15 -14 3 -25 10 -25 14 0 5 -9 12 -20 15 -11 4 -17 11
-14 17 4 6 2 8 -4 5 -14 -9 -43 3 -36 14 3 5 -2 9 -12 9 -9 0 -24 8 -33 18 -9
9 -29 24 -46 32 -16 8 -38 23 -47 34 -10 10 -18 16 -18 12 0 -4 -7 -1 -15 6
-34 30 -45 38 -45 32 0 -4 -9 2 -20 13 -10 12 -28 24 -40 28 -11 3 -20 11 -20
16 0 5 -7 9 -15 9 -8 0 -15 4 -15 8 0 5 -12 15 -27 23 -16 8 -33 19 -40 24 -7
6 -19 16 -28 23 -8 7 -15 10 -15 6 0 -4 -8 2 -17 12 -10 11 -30 25 -45 33 -16
8 -28 18 -28 23 0 5 -4 7 -9 4 -5 -3 -11 1 -15 9 -3 8 -12 15 -21 15 -8 0 -15
5 -15 10 0 6 -9 10 -21 10 -11 0 -17 5 -14 10 3 6 1 10 -5 10 -6 0 -18 6 -25
13 -31 27 -43 36 -73 51 -18 9 -32 21 -32 26 0 6 -7 10 -15 10 -8 0 -15 5 -15
12 0 6 -3 9 -6 5 -4 -3 -12 -1 -20 6 -33 29 -44 37 -53 37 -6 0 -16 9 -23 19
-6 10 -18 17 -25 14 -7 -3 -13 2 -13 12 0 9 -4 14 -9 11 -5 -3 -14 1 -21 9 -7
8 -16 12 -21 9 -5 -3 -6 3 -2 12 4 11 3 15 -5 10 -6 -3 -13 -2 -17 4 -4 6 -11
8 -16 5 -5 -4 -9 1 -9 10 0 9 -4 14 -9 11 -5 -3 -20 5 -34 18 -14 13 -28 21
-31 18 -3 -3 -6 2 -6 11 0 9 -3 16 -7 15 -5 -1 -18 3 -29 10 -12 6 -25 8 -29
4 -5 -4 -6 -2 -3 3 3 6 0 16 -8 23 -8 7 -14 10 -14 7 0 -4 -6 0 -14 7 -7 7
-24 20 -36 28 -12 8 -28 21 -36 28 -7 6 -17 12 -23 12 -6 0 -20 9 -31 20 -11
11 -20 17 -20 13 0 -3 -8 3 -17 13 -10 11 -30 25 -45 33 -16 8 -28 18 -28 23
0 4 -6 8 -14 8 -8 0 -17 7 -20 16 -3 8 -10 13 -15 10 -5 -3 -12 1 -15 10 -3 8
-10 13 -14 10 -5 -3 -15 4 -22 15 -8 10 -20 19 -27 19 -7 0 -13 5 -13 12 0 6
-3 9 -6 5 -4 -3 -12 -1 -19 6 -7 7 -23 19 -35 27 -12 8 -28 21 -36 28 -7 6
-17 12 -22 12 -6 0 -12 7 -16 15 -3 8 -12 15 -20 15 -8 0 -16 4 -18 9 -2 5
-10 11 -18 13 -8 2 -21 11 -28 21 -7 9 -19 17 -25 17 -7 0 -19 9 -27 19 -7 11
-17 18 -21 15 -4 -2 -14 5 -22 16 -7 11 -16 18 -19 15 -3 -3 -17 6 -32 20 -15
14 -34 25 -42 25 -7 0 -14 7 -14 15 0 13 -4 16 -25 15 -3 0 -18 11 -33 25 -15
14 -35 28 -44 31 -10 3 -18 10 -18 15 0 7 -165 9 -475 8 -329 -2 -475 -6 -475
-13 0 -8 -3 -8 -8 0 -9 13 -110 16 -117 3 -4 -5 -14 -4 -25 3 -14 9 -22 9 -33
0 -7 -7 -17 -9 -21 -5 -12 13 -48 14 -40 1 5 -7 3 -8 -7 -2 -22 13 -42 14 -58
1 -9 -8 -12 -8 -8 -1 8 14 -81 13 -102 0 -10 -6 -12 -6 -7 3 9 14 -30 11 -53
-3 -10 -6 -12 -5 -7 2 8 13 -50 12 -71 -1 -6 -4 -15 -3 -18 3 -5 8 -11 8 -20
0 -10 -8 -15 -8 -20 0 -5 8 -10 8 -20 0 -10 -8 -15 -8 -20 0 -5 7 -11 8 -19 1
-7 -6 -17 -6 -26 -1 -8 5 -21 5 -31 -1 -12 -6 -20 -5 -25 2 -4 8 -9 7 -15 -2
-7 -12 -9 -12 -9 0 0 11 -3 11 -15 1 -12 -10 -15 -10 -15 0 0 10 -3 10 -14 1
-10 -9 -16 -9 -21 -1 -5 8 -11 8 -19 1 -9 -7 -16 -7 -24 1 -9 9 -12 9 -12 -1
0 -11 -3 -11 -15 -1 -12 10 -15 10 -15 0 0 -10 -3 -10 -15 0 -12 10 -15 10
-15 0 0 -10 -3 -10 -14 -1 -11 9 -16 9 -21 0 -6 -8 -10 -8 -15 2 -7 10 -12 10
-22 1 -11 -9 -17 -9 -26 0 -9 9 -12 9 -12 -1 0 -11 -3 -11 -15 -1 -12 10 -15
10 -15 0 0 -8 -4 -9 -12 -4 -12 8 -33 10 -48 4 -17 -6 -52 -5 -56 2 -3 5 -12
4 -20 -3 -11 -9 -14 -9 -14 1 0 10 -3 10 -15 0 -12 -10 -15 -10 -15 0 0 10 -3
10 -14 1 -10 -8 -16 -9 -21 -1 -4 7 -12 7 -26 0 -14 -8 -19 -7 -19 2 0 8 -3 9
-8 3 -10 -14 -32 -17 -32 -4 0 6 -5 7 -12 2 -20 -12 -38 -12 -38 -1 0 7 -5 7
-13 -1 -10 -8 -17 -7 -27 2 -10 9 -11 9 -5 -1 8 -16 -26 -13 -37 3 -5 6 -8 6
-8 -1 0 -12 -38 -13 -56 -1 -6 3 -14 3 -18 0 -11 -11 -36 -12 -36 -2 0 6 -6 7
-12 2 -20 -12 -62 -12 -70 1 -5 7 -8 7 -8 1 0 -12 -39 -14 -56 -3 -6 4 -14 4
-18 0 -12 -11 -146 -9 -146 2 0 8 -3 8 -8 1 -10 -15 -333 -15 -325 -1 5 7 2 7
-8 0 -9 -7 -75 -11 -191 -10 -98 0 -178 -2 -178 -6 0 -4 -13 -3 -30 2 -20 6
-30 5 -30 -2 0 -6 -9 -4 -22 4 -19 12 -27 12 -47 2z"/>
<path d="M5690 14705 c0 -4 8 -20 17 -38 9 -18 18 -34 18 -37 10 -41 19 -60
27 -60 5 0 6 -5 3 -11 -4 -5 0 -18 8 -27 9 -9 16 -21 17 -27 3 -27 13 -55 19
-55 4 0 8 -7 9 -15 1 -8 3 -22 4 -30 1 -8 5 -15 10 -15 4 0 8 -14 8 -31 0 -17
4 -28 10 -24 6 3 10 -3 10 -14 0 -11 5 -23 11 -27 6 -3 9 -15 6 -25 -3 -13 0
-19 11 -19 8 0 12 -3 9 -6 -3 -4 -1 -16 5 -28 7 -11 13 -30 15 -41 2 -11 8
-24 13 -29 6 -6 10 -18 10 -29 0 -10 4 -16 9 -12 6 3 8 -4 6 -15 -2 -11 1 -20
6 -20 6 0 7 -4 4 -10 -3 -5 -1 -10 5 -10 6 0 9 -4 5 -9 -3 -5 -1 -12 5 -16 6
-4 8 -10 5 -15 -3 -5 -1 -11 5 -15 6 -4 8 -11 5 -16 -4 -5 -2 -9 3 -9 6 0 13
-7 16 -16 4 -10 2 -13 -7 -8 -6 4 -4 -2 6 -14 11 -11 16 -26 12 -31 -3 -6 -1
-11 4 -11 6 0 11 -9 11 -19 0 -11 5 -23 10 -26 6 -3 10 -15 10 -26 0 -10 4
-19 8 -19 4 0 8 -9 9 -20 1 -11 9 -27 17 -36 9 -9 14 -20 11 -25 -3 -4 1 -19
10 -32 8 -13 12 -27 8 -30 -3 -4 -1 -7 6 -7 7 0 10 -4 6 -9 -3 -5 0 -15 7 -23
7 -7 15 -22 16 -33 2 -11 8 -22 13 -23 5 -2 7 -7 4 -11 -2 -5 5 -27 16 -51 11
-23 18 -44 15 -47 -3 -3 4 -17 14 -31 11 -13 20 -33 20 -43 0 -10 5 -21 10
-24 6 -3 10 -15 10 -26 0 -10 5 -19 11 -19 5 0 7 -4 4 -10 -3 -5 -2 -10 4 -10
5 0 8 -9 6 -20 -2 -11 0 -20 6 -20 5 0 9 -9 9 -20 0 -11 5 -20 10 -20 6 0 10
-11 10 -25 0 -14 4 -25 9 -25 9 0 25 -56 22 -78 -1 -7 3 -11 10 -10 10 3 18
-16 21 -49 1 -7 5 -13 10 -13 5 0 6 -4 3 -10 -3 -5 -1 -10 4 -10 6 0 10 -3 9
-7 -1 -5 3 -23 9 -41 7 -18 12 -35 12 -37 0 -3 7 -18 15 -33 13 -24 28 -63 27
-69 0 -2 10 -24 24 -50 13 -26 21 -51 19 -55 -3 -4 0 -8 5 -8 6 0 11 -3 10 -7
-1 -5 2 -19 7 -33 4 -14 6 -27 5 -29 -2 -2 1 -7 6 -10 4 -3 14 -17 21 -30 11
-19 11 -22 0 -15 -7 4 -2 -5 12 -21 14 -16 18 -25 10 -20 -12 6 -13 5 -2 -6 6
-7 12 -21 12 -31 0 -10 5 -18 10 -18 6 0 10 -9 10 -20 0 -11 4 -20 9 -20 5 0
8 -8 6 -17 -1 -10 3 -25 10 -33 10 -12 20 -42 28 -80 0 -3 7 -11 14 -18 7 -7
13 -22 13 -33 0 -10 4 -19 8 -19 4 0 9 -12 10 -27 1 -16 7 -29 12 -31 6 -2 10
-12 10 -23 0 -10 4 -19 8 -19 5 0 9 -7 10 -15 1 -8 3 -22 4 -30 1 -8 5 -15 10
-15 4 0 8 -9 8 -20 0 -11 5 -20 10 -20 6 0 10 -8 10 -18 0 -10 6 -24 13 -31
10 -11 9 -12 -3 -6 -10 6 -9 1 4 -13 10 -11 19 -32 20 -46 0 -14 7 -28 15 -31
7 -3 11 -12 8 -19 -3 -8 1 -20 8 -26 8 -7 13 -16 10 -20 -3 -5 0 -14 7 -22 13
-14 20 -33 21 -55 0 -7 5 -13 10 -13 6 0 7 -3 4 -7 -4 -3 -2 -12 4 -20 6 -7 8
-13 3 -13 -5 0 -3 -4 4 -9 7 -4 14 -18 15 -29 1 -12 5 -22 9 -22 4 0 7 -3 7
-7 -1 -5 0 -11 1 -15 1 -5 3 -11 4 -15 1 -5 7 -18 14 -31 7 -12 10 -28 6 -34
-4 -7 -3 -8 4 -4 11 6 17 -12 13 -36 0 -5 3 -8 7 -8 4 0 14 -17 21 -37 14 -42
28 -78 42 -105 5 -10 9 -25 9 -33 0 -9 4 -13 10 -10 6 3 7 -1 4 -9 -3 -9 -1
-16 6 -16 6 0 9 -4 6 -9 -3 -4 3 -24 13 -44 10 -20 14 -34 7 -30 -6 3 -6 0 2
-8 6 -7 12 -16 12 -21 0 -4 -63 -6 -140 -5 -77 1 -140 0 -140 -3 0 -3 -58 -4
-130 -4 -90 1 -130 -2 -130 -10 0 -8 -2 -8 -8 0 -9 14 -42 14 -42 0 0 -6 -4
-5 -9 2 -9 14 -32 13 -43 -3 -5 -6 -8 -4 -8 5 0 13 -1 13 -10 0 -8 -12 -10
-12 -10 -1 0 10 -3 11 -14 2 -10 -8 -16 -9 -21 -1 -4 7 -13 7 -27 -1 -16 -9
-19 -8 -13 2 6 8 4 10 -6 3 -18 -11 -40 -12 -61 -1 -12 5 -18 4 -18 -4 0 -8
-4 -9 -13 0 -10 8 -17 7 -25 -1 -9 -9 -12 -9 -12 1 0 7 -5 9 -12 4 -21 -12
-38 -12 -38 0 0 8 -3 8 -8 2 -10 -14 -32 -17 -32 -4 0 8 -4 8 -13 1 -14 -12
-35 -11 -54 1 -6 4 -14 3 -17 -1 -3 -5 -68 -8 -146 -8 -87 1 -140 -3 -140 -9
0 -7 -3 -7 -8 0 -4 6 -26 10 -50 10 -23 0 -42 -4 -42 -10 0 -5 -5 -3 -10 5 -5
8 -10 11 -10 5 0 -11 -132 -11 -149 0 -6 3 -11 1 -11 -5 0 -6 -11 -8 -26 -6
-15 3 -35 1 -45 -4 -12 -7 -20 -6 -25 2 -5 7 -3 8 6 3 9 -6 11 -4 5 4 -5 9
-11 9 -17 3 -6 -6 -17 -8 -26 -5 -11 5 -13 3 -7 -7 6 -9 4 -11 -6 -5 -20 13
-49 13 -49 1 0 -6 -4 -5 -8 2 -7 9 -15 10 -35 3 -18 -7 -27 -7 -30 2 -3 9 -8
9 -20 -2 -10 -7 -17 -9 -17 -3 0 12 -32 10 -42 -3 -5 -6 -12 -4 -18 5 -9 13
-10 13 -10 0 0 -13 -1 -13 -10 0 -8 13 -10 13 -10 0 0 -10 -3 -11 -12 -2 -6 6
-18 8 -27 4 -9 -4 -99 -7 -201 -7 -112 0 -188 -4 -192 -10 -5 -7 -8 -7 -8 0 0
11 -60 12 -76 2 -6 -3 -16 -2 -23 3 -8 4 -25 5 -40 1 -14 -4 -37 -5 -51 -1
-14 4 -32 4 -40 1 -21 -8 -52 -7 -69 4 -11 6 -13 4 -7 -10 5 -15 4 -16 -9 -5
-8 7 -15 9 -15 5 0 -4 -8 -1 -17 6 -9 8 -14 9 -10 3 4 -7 0 -15 -9 -18 -12 -4
-15 -2 -10 9 3 8 1 15 -4 15 -6 0 -10 -5 -10 -12 0 -6 -3 -8 -7 -5 -3 4 -13 1
-21 -6 -13 -10 -14 -9 -7 2 6 11 4 13 -7 8 -9 -3 -21 0 -28 6 -10 9 -11 9 -6
0 8 -15 -14 -23 -36 -12 -10 6 -19 5 -23 -1 -4 -6 -12 -7 -18 -3 -17 11 -31
10 -39 -2 -5 -6 -8 -5 -8 4 0 10 -3 11 -14 2 -11 -9 -16 -9 -21 0 -6 8 -10 7
-16 -2 -7 -12 -9 -12 -9 0 0 11 -3 11 -15 1 -12 -10 -15 -10 -15 1 0 9 -3 10
-8 4 -10 -14 -52 -14 -52 -1 0 6 -4 5 -9 -3 -7 -12 -13 -12 -24 -3 -7 7 -17 9
-20 5 -4 -3 -109 -8 -235 -10 -125 -2 -232 -4 -237 -5 -6 -1 -23 2 -38 6 -16
4 -27 2 -27 -4 0 -5 -5 -10 -11 -10 -5 0 -7 6 -3 13 5 9 4 9 -6 0 -9 -8 -19
-9 -31 -2 -13 7 -20 5 -28 -8 -6 -10 -11 -13 -11 -7 0 7 -7 15 -16 18 -8 3
-12 2 -9 -3 6 -11 -35 -8 -54 4 -10 5 -12 4 -7 -3 5 -9 -3 -10 -29 -6 -29 4
-35 3 -29 -8 6 -10 5 -11 -7 -1 -15 12 -97 11 -118 -2 -8 -4 -16 -2 -21 5 -6
9 -12 9 -30 0 -16 -8 -20 -9 -15 -1 6 11 -19 9 -62 -5 -7 -2 -13 2 -13 8 0 7
-5 6 -15 -2 -11 -9 -15 -9 -15 -1 0 7 -5 9 -12 5 -15 -9 -58 -10 -81 -1 -9 3
-17 3 -17 -1 0 -9 -276 -9 -285 0 -4 4 -19 -1 -33 -10 -16 -10 -23 -12 -18 -4
6 9 1 11 -18 8 -14 -3 -31 -8 -37 -12 -7 -4 -9 -3 -6 2 3 6 -11 10 -34 9 -21
0 -39 -4 -39 -10 0 -5 -5 -3 -10 5 -7 11 -10 11 -10 2 0 -10 -5 -10 -20 -2
-15 8 -20 8 -20 -2 0 -9 -3 -9 -10 2 -7 11 -10 11 -10 2 0 -10 -5 -10 -20 -2
-11 6 -20 7 -20 2 0 -4 -9 -8 -20 -8 -11 0 -20 5 -20 10 0 5 -7 1 -16 -10 -8
-10 -13 -14 -10 -8 4 8 -22 11 -84 10 -54 0 -90 -5 -90 -11 0 -7 -3 -6 -8 0
-4 6 -16 11 -27 11 -11 0 -23 -5 -27 -11 -5 -6 -8 -6 -8 2 0 8 -7 10 -17 6
-22 -8 -64 -8 -86 0 -9 3 -17 2 -17 -4 0 -6 -6 -6 -18 0 -11 6 -24 6 -35 0
-12 -7 -17 -6 -17 3 0 9 -3 9 -11 1 -7 -7 -20 -8 -34 -3 -12 4 -28 4 -35 0 -8
-5 -21 -5 -30 0 -9 5 -22 5 -30 0 -7 -4 -23 -4 -36 0 -12 5 -25 6 -29 2 -11
-11 -65 -10 -65 2 0 7 -3 8 -8 1 -4 -6 -16 -10 -27 -10 -11 0 -25 -3 -32 -8
-6 -4 -14 -4 -17 1 -3 5 -20 8 -37 6 -18 -2 -39 2 -47 9 -13 10 -14 9 -7 -2 6
-11 4 -13 -8 -8 -10 3 -17 2 -17 -4 0 -6 -5 -7 -11 -4 -13 8 -89 12 -89 5 0
-7 -66 -4 -79 5 -6 3 -11 1 -11 -4 0 -6 -5 -11 -11 -11 -5 0 -7 5 -3 11 4 8 1
8 -12 2 -11 -5 -59 -9 -107 -8 -49 1 -90 -2 -93 -7 -3 -4 -13 -4 -24 2 -13 7
-21 5 -31 -6 -7 -9 -9 -18 -3 -22 5 -4 10 -16 12 -27 2 -11 15 -54 29 -95 14
-41 26 -81 26 -87 0 -7 4 -13 8 -13 4 0 6 -9 4 -20 -2 -11 1 -20 6 -20 6 0 7
-4 4 -10 -3 -5 -2 -10 3 -10 5 0 8 -12 8 -27 -1 -16 5 -36 13 -45 8 -10 10
-18 6 -18 -4 0 0 -10 11 -22 12 -13 13 -18 4 -13 -12 7 -13 6 -3 -7 7 -8 10
-18 6 -21 -3 -4 -1 -7 6 -7 7 0 9 -4 6 -10 -3 -5 -2 -10 3 -10 5 0 8 -10 7
-22 -1 -13 2 -26 6 -29 5 -3 10 -17 11 -32 1 -15 6 -27 10 -27 4 0 8 -9 8 -20
0 -11 4 -28 9 -38 5 -9 15 -38 23 -64 7 -27 16 -48 21 -48 5 0 7 -6 4 -14 -3
-8 -3 -17 1 -20 3 -4 8 -19 10 -34 2 -15 7 -28 12 -30 5 -2 6 -10 3 -18 -3 -8
1 -14 8 -14 7 0 10 -3 6 -6 -3 -3 5 -35 17 -70 16 -43 20 -65 12 -68 -6 -2 -4
-5 6 -5 10 -1 15 -8 13 -18 -1 -10 1 -22 5 -28 5 -5 9 -13 9 -17 1 -5 1 -9 2
-10 0 -2 2 -12 4 -22 2 -10 8 -22 13 -25 5 -3 8 -14 6 -23 -1 -10 2 -18 7 -18
5 0 9 -5 9 -11 0 -5 -6 -7 -12 -4 -7 4 -6 1 2 -7 9 -7 15 -20 15 -28 0 -8 6
-21 13 -29 11 -12 11 -15 0 -22 -11 -7 -11 -9 1 -9 7 0 11 -6 7 -15 -3 -8 -2
-15 2 -15 6 0 28 -58 38 -100 3 -13 16 -47 25 -64 8 -13 7 -16 -1 -11 -9 5 -9
2 -1 -14 6 -12 15 -30 21 -41 5 -11 10 -29 10 -40 0 -11 4 -20 9 -20 5 0 8 -6
8 -12 -1 -23 15 -78 23 -78 5 0 7 -8 5 -17 -1 -10 4 -28 11 -40 8 -13 12 -23
8 -23 -4 0 -1 -7 6 -15 10 -12 10 -15 -1 -15 -11 0 -11 -2 -1 -9 7 -4 14 -18
15 -29 1 -12 6 -22 11 -22 5 0 6 -3 3 -7 -4 -3 -2 -12 5 -20 6 -7 8 -16 5 -20
-4 -3 -2 -12 3 -19 11 -12 17 -33 27 -86 3 -16 10 -28 15 -28 6 0 8 -6 5 -13
-3 -7 3 -30 13 -50 10 -20 15 -35 10 -32 -8 5 9 -37 31 -79 7 -12 7 -16 0 -12
-6 4 -4 -6 4 -20 8 -15 12 -31 9 -36 -3 -4 -1 -8 4 -8 5 0 9 -7 10 -15 1 -8 3
-22 4 -30 1 -8 5 -15 10 -15 4 0 7 -3 6 -7 -2 -8 19 -87 29 -113 4 -8 7 -17 7
-20 1 -3 4 -9 7 -15 4 -5 5 -20 4 -32 -1 -12 3 -21 9 -20 5 1 10 -7 11 -18 0
-11 5 -29 11 -40 6 -11 10 -27 9 -35 0 -8 3 -17 7 -20 4 -3 9 -15 11 -25 1
-11 5 -24 8 -30 6 -9 21 -61 23 -77 1 -3 4 -9 8 -13 4 -4 4 -13 1 -21 -3 -8 0
-14 6 -14 6 0 11 -11 11 -25 0 -14 4 -25 9 -25 5 0 9 -6 8 -12 -1 -31 4 -49
11 -44 4 2 8 -7 7 -22 0 -15 5 -33 12 -40 7 -8 11 -18 7 -23 -3 -6 2 -21 11
-35 9 -13 13 -29 10 -34 -3 -5 0 -12 6 -15 5 -4 8 -13 5 -21 -3 -8 -1 -14 5
-14 6 0 8 -7 5 -15 -3 -9 1 -18 9 -21 7 -3 11 -12 8 -20 -3 -8 -1 -20 4 -27 5
-6 9 -19 8 -27 0 -8 5 -21 12 -28 7 -8 11 -18 7 -23 -3 -6 -1 -15 4 -22 5 -7
12 -25 16 -42 4 -16 13 -33 19 -37 9 -6 9 -8 -1 -8 -9 0 -7 -8 5 -27 10 -15
13 -24 7 -20 -6 3 -3 -10 7 -31 11 -21 20 -49 21 -64 1 -15 5 -25 9 -22 6 3
17 -37 22 -78 1 -10 5 -18 9 -18 4 0 7 -3 6 -7 -1 -5 4 -19 11 -32 9 -16 9
-21 1 -16 -8 5 -9 2 -1 -11 16 -28 51 -136 51 -157 0 -10 4 -16 9 -13 5 4 8
-2 7 -11 -2 -10 3 -27 11 -39 7 -11 10 -23 7 -27 -3 -3 -2 -12 2 -19 9 -13 14
-33 16 -55 1 -7 6 -13 11 -13 6 0 7 -3 4 -6 -3 -4 -1 -16 5 -28 11 -19 15 -35
20 -73 1 -7 5 -13 10 -13 4 0 8 -10 8 -23 0 -13 6 -29 13 -36 10 -11 9 -12 -3
-6 -12 6 -13 5 -2 -6 6 -7 12 -21 12 -31 0 -10 5 -18 11 -18 6 0 9 -7 6 -15
-4 -8 -2 -17 4 -21 6 -3 8 -12 5 -20 -3 -8 -1 -14 5 -14 6 0 9 -7 5 -15 -3 -8
-1 -15 5 -15 6 0 7 -4 4 -10 -3 -5 -3 -10 2 -10 4 0 9 -12 10 -26 0 -15 5 -29
10 -33 5 -3 9 -13 9 -21 1 -14 5 -27 22 -70 3 -8 6 -19 7 -25 3 -24 19 -61 29
-67 8 -5 7 -8 -2 -8 -8 0 -9 -5 -3 -17 17 -32 41 -103 35 -103 -4 0 0 -7 7
-17 8 -9 13 -24 11 -35 -2 -10 2 -18 7 -18 6 0 11 -13 11 -30 0 -16 5 -30 12
-30 6 0 9 -3 5 -6 -3 -3 3 -30 13 -59 10 -29 16 -56 13 -59 -4 -3 -1 -6 5 -6
7 0 11 -3 11 -7 -4 -22 2 -44 10 -39 4 3 7 -7 7 -22 -1 -15 4 -34 11 -42 12
-15 13 -19 13 -46 0 -8 4 -12 10 -9 6 3 7 -1 4 -9 -3 -9 -3 -24 2 -33 4 -10 8
-20 9 -23 1 -3 5 -13 9 -22 4 -9 9 -25 11 -35 2 -10 4 -20 5 -23 1 -3 2 -8 1
-12 0 -5 5 -8 11 -8 9 0 8 -4 -2 -10 -12 -8 -12 -10 -1 -10 8 0 11 -7 8 -20
-3 -12 1 -24 11 -29 9 -5 14 -13 10 -17 -5 -4 -4 -12 1 -18 5 -6 11 -22 13
-36 1 -14 6 -28 11 -31 8 -6 18 -42 20 -71 1 -10 5 -18 9 -18 4 0 7 -3 6 -7
-2 -13 14 -67 25 -81 5 -7 7 -15 4 -19 -4 -3 -1 -15 5 -27 7 -11 13 -30 15
-40 2 -11 8 -25 13 -31 5 -7 7 -15 3 -18 -3 -4 0 -15 9 -24 8 -10 15 -31 16
-46 1 -16 5 -34 9 -40 4 -7 8 -16 10 -22 1 -5 4 -21 7 -35 3 -14 10 -26 15
-28 6 -2 7 -10 4 -18 -3 -8 -1 -14 5 -14 5 0 8 -11 7 -25 -2 -14 1 -25 6 -25
6 0 8 -4 4 -9 -3 -5 -1 -12 5 -16 5 -3 10 -14 10 -23 0 -9 7 -30 15 -45 9 -18
10 -25 2 -20 -7 4 -7 0 2 -10 7 -9 10 -17 5 -17 -5 0 -4 -4 3 -8 11 -7 17 -27
30 -94 3 -15 11 -33 19 -39 10 -8 11 -15 4 -24 -7 -9 -6 -16 5 -25 8 -7 15
-23 15 -36 0 -13 4 -24 8 -24 5 0 9 -7 10 -15 1 -8 3 -22 4 -30 1 -8 4 -15 7
-15 3 0 7 -12 8 -26 0 -15 5 -29 11 -33 5 -3 8 -14 6 -23 -1 -10 2 -18 8 -18
6 0 8 -9 5 -20 -3 -11 -1 -20 5 -20 6 0 8 -7 4 -15 -3 -8 -1 -15 4 -15 6 0 10
-8 10 -18 0 -10 8 -34 19 -55 10 -20 15 -34 10 -31 -5 3 -9 0 -9 -5 0 -6 5
-11 11 -11 6 0 9 -6 6 -14 -3 -7 -2 -17 3 -22 10 -11 41 -114 34 -114 -3 0 2
-7 10 -16 9 -8 14 -20 11 -24 -3 -5 -1 -18 5 -30 5 -11 15 -29 21 -41 8 -17 8
-20 -3 -14 -11 7 -11 6 0 -6 14 -15 13 -16 52 41 8 12 22 30 30 40 8 10 22 28
30 40 8 12 21 29 28 36 7 8 10 14 5 14 -4 0 -3 4 2 8 6 4 30 34 54 67 25 33
48 62 53 63 4 2 6 7 4 11 -3 4 8 22 24 39 16 18 27 32 24 32 -3 0 1 7 8 15 23
25 32 38 87 118 29 42 57 77 61 77 8 0 23 39 21 53 -1 5 2 6 7 3 5 -3 15 6 22
19 7 14 17 25 22 25 4 0 8 7 8 15 0 8 5 15 10 15 6 0 9 6 8 13 -2 6 3 11 10 9
6 -1 12 2 12 8 0 17 3 25 22 44 9 10 15 24 11 29 -3 6 -1 7 5 3 7 -4 12 -3 12
2 0 4 9 18 20 30 12 12 17 22 13 22 -4 0 -3 4 2 8 20 14 64 80 58 86 -4 3 1 6
10 6 9 0 17 7 17 15 0 8 5 15 10 15 6 0 10 7 10 15 0 8 5 15 12 15 6 0 8 3 5
7 -4 3 2 13 13 20 11 8 18 19 15 24 -4 5 2 9 11 9 10 0 14 3 11 6 -4 4 7 24
24 45 17 22 28 39 25 39 -2 0 8 15 25 32 16 18 29 38 29 45 0 6 10 20 23 30
12 10 28 30 36 45 8 16 18 28 23 28 5 0 6 5 3 10 -3 5 -3 10 2 10 4 0 19 17
33 38 24 35 29 42 58 76 6 8 12 18 12 20 0 6 26 39 53 68 9 10 17 21 17 26 1
8 28 47 48 68 7 8 10 14 5 14 -4 0 0 5 10 11 9 5 17 17 17 25 0 8 5 12 10 9 9
-5 12 1 9 21 0 3 9 13 20 23 11 9 21 23 23 30 2 7 17 29 35 48 18 19 35 44 38
54 4 10 11 19 17 19 6 0 8 3 5 7 -4 3 4 16 18 29 14 13 21 25 16 29 -6 3 -8
14 -6 25 2 11 0 20 -6 20 -5 0 -9 10 -9 22 0 12 -7 30 -17 40 -11 13 -12 18
-3 18 10 0 10 3 0 15 -6 8 -9 19 -5 25 3 5 1 10 -4 10 -6 0 -11 12 -11 26 0
14 -4 23 -8 20 -5 -3 -8 10 -7 29 0 18 -3 31 -7 29 -7 -5 -12 21 -5 29 1 2 -4
11 -11 20 -7 8 -15 28 -18 43 -3 16 -11 32 -17 36 -9 6 -9 8 1 8 12 0 12 0
-19 61 -8 16 -8 19 1 14 7 -4 4 4 -5 18 -9 15 -14 31 -11 36 4 5 2 12 -4 16
-6 4 -8 11 -5 16 4 5 2 9 -4 9 -5 0 -8 8 -7 17 2 10 -3 23 -10 30 -6 7 -11 26
-10 42 1 16 -2 28 -6 25 -7 -5 -12 18 -9 39 0 4 -3 7 -7 7 -5 0 -9 6 -10 13
-1 14 -10 52 -12 52 -1 0 -4 11 -6 25 -2 13 -8 27 -12 30 -4 3 -7 14 -7 25 0
11 -3 25 -8 31 -8 12 -18 48 -19 72 -1 6 -6 12 -11 12 -5 0 -7 7 -4 15 4 8 2
17 -4 20 -5 4 -7 11 -4 16 4 5 2 9 -2 9 -5 0 -10 12 -11 26 -1 15 -7 33 -13
40 -6 8 -8 14 -4 14 4 0 3 6 -3 13 -6 6 -10 15 -10 20 -1 15 -15 72 -22 87
-16 32 -29 83 -24 91 3 5 0 9 -6 9 -7 0 -10 7 -6 15 3 8 1 15 -5 15 -6 0 -8 4
-4 9 3 5 1 12 -4 15 -5 4 -8 14 -7 24 2 9 -4 22 -13 29 -12 9 -13 12 -2 13 11
0 11 3 1 15 -7 8 -9 15 -4 15 5 0 4 4 -3 8 -6 4 -14 19 -16 32 -2 14 -9 36
-14 50 -6 14 -9 28 -6 33 2 4 0 7 -6 7 -5 0 -8 9 -6 20 2 11 -1 20 -7 20 -5 0
-8 7 -5 15 4 8 1 17 -4 21 -6 3 -9 14 -6 24 3 11 -1 21 -9 24 -7 3 -13 13 -13
23 -1 39 -5 53 -14 53 -5 0 -7 9 -4 20 3 11 1 20 -5 20 -5 0 -6 5 -3 10 3 6 1
10 -5 10 -6 0 -9 3 -7 8 3 4 0 18 -6 32 -6 14 -11 32 -11 40 -1 8 -5 21 -9 28
-5 6 -6 12 -3 12 3 0 -1 12 -9 26 -7 15 -11 33 -8 40 3 8 0 14 -7 14 -6 0 -9
4 -5 9 3 5 1 12 -4 16 -5 3 -8 14 -6 25 2 12 0 18 -6 15 -5 -4 -9 3 -9 14 0
11 -5 32 -12 48 -6 15 -11 37 -12 48 0 11 -6 26 -12 33 -7 7 -11 21 -9 32 2
11 -1 20 -7 20 -6 0 -8 11 -6 25 3 13 2 22 -2 20 -10 -6 -20 20 -20 51 0 13
-4 24 -8 24 -4 0 -9 12 -10 27 -1 15 -7 32 -12 37 -6 6 -10 20 -10 33 0 13 -4
23 -8 23 -4 0 -8 8 -9 18 -3 44 -8 62 -17 62 -5 0 -6 3 -3 6 3 4 2 15 -4 26
-6 11 -13 32 -15 46 -8 44 -15 62 -24 62 -5 0 -7 6 -4 14 3 8 -2 29 -11 46 -9
18 -14 34 -11 38 3 3 0 12 -7 20 -10 13 -9 14 3 7 10 -5 8 -1 -4 13 -10 12
-16 28 -13 36 3 8 2 16 -3 18 -5 2 -11 15 -14 30 -2 14 -9 36 -16 47 -6 12 -8
21 -4 21 3 0 2 6 -3 13 -5 6 -10 23 -11 37 l-3 25 131 0 c71 0 130 -3 130 -7
0 -4 9 -4 19 0 11 4 56 5 101 2 45 -3 84 -2 87 3 2 4 12 4 21 -1 9 -4 49 -7
87 -6 39 1 76 -4 84 -10 11 -8 13 -8 7 2 -9 16 6 16 23 0 11 -11 12 -10 6 1
-6 11 -3 13 13 9 12 -4 25 -2 28 3 4 6 11 6 18 0 7 -6 16 -8 19 -4 4 3 7 0 7
-8 0 -12 2 -12 9 0 8 13 12 13 27 0 10 -8 15 -9 11 -3 -4 7 5 11 23 11 18 0
27 -4 23 -11 -5 -8 -2 -8 8 -1 12 9 34 11 49 5 19 -7 41 -7 46 1 3 5 12 5 23
0 10 -6 23 -6 31 -1 8 5 21 5 31 -1 12 -6 19 -5 22 4 4 9 8 9 15 -2 6 -8 15
-10 23 -5 19 12 39 14 39 4 0 -10 40 -7 59 4 8 5 16 3 21 -5 7 -10 11 -10 24
0 9 8 16 10 16 5 0 -5 27 -9 59 -9 36 -1 57 3 54 9 -4 5 -1 6 8 0 8 -4 139 -9
293 -10 153 -2 284 -5 292 -8 8 -3 14 -2 14 3 0 4 10 7 23 5 12 -1 22 -3 22
-4 0 -1 17 -2 38 -3 20 -1 37 2 37 6 0 5 5 5 10 2 6 -4 32 -7 58 -7 26 0 53
-5 61 -11 12 -9 13 -9 7 1 -4 7 -1 12 8 12 9 0 16 -6 16 -12 0 -9 3 -10 8 -2
10 15 114 16 105 0 -4 -6 0 -6 9 2 11 9 18 10 23 2 3 -6 12 -7 18 -3 22 14 49
14 41 1 -5 -8 -1 -8 10 1 15 13 19 13 27 0 6 -10 9 -10 9 -2 0 15 21 13 32 -2
5 -6 8 -6 8 2 0 12 17 12 37 0 6 -4 15 -2 19 4 4 8 9 7 15 -2 7 -11 9 -11 9
-1 0 10 5 10 20 2 15 -8 20 -8 20 1 0 8 4 8 15 -1 12 -10 15 -10 15 0 0 9 4 9
13 2 8 -7 18 -7 27 -2 9 5 19 5 27 -2 9 -7 13 -7 13 2 0 9 3 10 13 1 10 -8 17
-7 25 1 9 9 12 9 12 -1 0 -10 3 -11 13 -2 8 6 17 8 21 4 11 -11 40 -10 48 2 5
6 8 5 8 -3 0 -10 5 -10 21 -1 12 6 19 7 15 1 -6 -11 53 -10 71 1 6 4 14 4 16
0 3 -5 101 -8 219 -8 130 0 216 -4 220 -10 5 -7 8 -7 8 0 0 11 50 12 66 2 6
-3 16 -2 24 3 8 5 22 5 32 -1 13 -7 18 -6 18 3 0 9 3 9 10 -2 5 -8 10 -10 10
-5 0 15 140 6 140 -8 0 -7 5 -4 11 7 9 15 13 16 21 5 7 -11 11 -11 15 -1 2 6
10 9 16 5 20 -13 47 -13 47 -2 0 8 4 8 13 2 14 -11 27 -11 46 1 9 6 12 5 8 -1
-7 -11 38 -24 48 -15 9 10 69 9 89 -1 15 -8 18 -6 13 7 -5 13 -3 15 12 7 10
-6 21 -7 25 -4 3 3 6 1 6 -6 0 -7 5 -9 12 -5 16 10 98 11 98 1 0 -5 5 -5 12
-1 16 10 68 11 68 1 0 -4 9 -3 19 3 13 7 22 7 26 0 4 -7 13 -7 26 0 14 8 19 7
19 -2 0 -9 2 -10 8 -2 5 9 11 8 20 -2 7 -8 10 -14 7 -14 -3 0 4 -16 15 -37 10
-20 17 -40 14 -45 -3 -4 0 -8 6 -8 7 0 10 -7 6 -15 -3 -8 -1 -15 5 -15 6 0 7
-4 4 -10 -3 -5 -1 -10 4 -10 6 0 11 -8 11 -18 0 -10 5 -23 12 -30 7 -7 9 -12
5 -12 -4 0 -1 -13 7 -29 9 -16 12 -31 9 -35 -4 -3 -1 -6 5 -6 9 0 26 -50 22
-66 -1 -4 4 -10 11 -14 7 -5 13 -16 14 -27 1 -10 6 -28 13 -39 6 -12 8 -24 5
-28 -3 -3 -1 -6 5 -6 7 0 12 -9 12 -19 0 -11 5 -23 10 -26 6 -3 10 -17 10 -30
0 -13 4 -25 10 -27 5 -1 11 -15 12 -30 1 -16 6 -28 10 -28 4 0 8 -7 8 -15 0
-8 5 -15 11 -15 5 0 8 -4 5 -8 -2 -4 1 -21 8 -37 8 -17 19 -49 26 -72 7 -23
16 -41 19 -38 4 2 8 -8 9 -23 1 -14 7 -31 12 -36 6 -6 10 -18 10 -28 0 -10 4
-18 10 -18 5 0 7 -7 4 -15 -4 -8 -1 -15 5 -15 6 0 10 -3 9 -7 -1 -5 4 -24 11
-43 8 -19 13 -38 12 -42 0 -5 3 -8 9 -8 5 0 7 -7 4 -15 -4 -8 -1 -15 5 -15 6
0 11 -9 11 -20 0 -11 4 -20 9 -20 6 0 8 -9 6 -20 -2 -11 1 -22 6 -25 5 -4 7
-11 4 -16 -4 -5 -1 -9 4 -9 6 0 11 -9 11 -20 0 -11 5 -20 11 -20 6 0 9 -6 6
-14 -3 -8 1 -22 8 -33 8 -10 15 -26 15 -35 0 -10 4 -18 8 -18 4 0 9 -10 9 -22
1 -13 7 -24 12 -26 5 -2 7 -10 4 -18 -3 -8 0 -14 6 -14 6 0 10 -3 9 -7 -3 -15
14 -63 23 -63 5 0 6 -7 3 -15 -4 -8 -1 -15 6 -15 6 0 10 -6 8 -12 -3 -7 1 -24
8 -37 7 -14 11 -28 8 -33 -3 -4 -1 -8 3 -8 5 0 15 -17 22 -37 7 -21 20 -53 28
-72 15 -33 21 -54 22 -79 1 -7 6 -10 11 -7 9 5 15 -23 11 -47 0 -5 3 -8 9 -8
5 0 10 -9 10 -19 0 -11 5 -23 11 -26 6 -4 8 -13 5 -21 -3 -8 -1 -14 5 -14 6 0
7 -4 4 -10 -3 -5 -1 -10 6 -10 7 0 9 -3 6 -7 -4 -3 0 -17 9 -31 11 -17 12 -22
3 -17 -8 5 -6 -1 4 -12 9 -11 17 -27 17 -36 0 -9 5 -19 10 -22 6 -4 8 -10 5
-15 -3 -5 -1 -11 5 -15 6 -4 8 -11 5 -16 -4 -5 -1 -9 5 -9 7 0 10 -7 6 -15 -3
-8 -1 -15 4 -15 6 0 10 -6 10 -13 0 -8 7 -28 16 -45 8 -18 12 -37 8 -43 -4 -8
-3 -9 4 -5 8 5 12 -2 12 -18 0 -14 5 -26 10 -26 6 0 10 -8 10 -18 0 -10 6 -27
14 -37 8 -11 12 -25 9 -32 -3 -7 0 -13 6 -13 6 0 11 -8 11 -18 0 -10 7 -28 16
-40 12 -17 12 -22 2 -22 -8 -1 -6 -6 6 -15 11 -8 16 -15 12 -15 -5 0 -3 -7 4
-15 7 -8 9 -15 4 -15 -4 0 -3 -5 4 -12 7 -7 12 -20 12 -30 0 -10 4 -18 8 -18
5 0 14 -22 21 -50 7 -27 17 -50 23 -50 5 0 7 -4 4 -8 -3 -5 2 -21 10 -37 8
-16 16 -36 18 -44 4 -19 22 -65 41 -104 9 -19 10 -25 2 -20 -7 3 -4 -3 6 -15
11 -11 16 -25 13 -31 -3 -5 -1 -11 4 -13 6 -2 12 -13 13 -26 0 -12 5 -22 9
-22 4 0 8 -9 8 -20 0 -11 4 -20 8 -20 5 0 9 -7 10 -15 1 -8 3 -22 4 -30 1 -8
4 -15 8 -15 4 0 13 -20 20 -45 7 -25 16 -45 20 -45 4 0 7 -6 8 -12 1 -19 7
-39 20 -71 7 -16 12 -33 12 -38 0 -5 4 -9 9 -9 5 0 8 -8 7 -17 -2 -10 3 -23
10 -30 7 -7 11 -22 9 -33 -2 -11 0 -18 4 -16 6 4 35 -61 36 -84 1 -3 6 -15 13
-26 6 -12 8 -24 5 -28 -3 -3 -1 -6 5 -6 7 0 12 -8 12 -17 0 -10 7 -26 15 -36
7 -11 11 -25 8 -33 -3 -8 0 -14 7 -14 6 0 9 -4 5 -9 -3 -5 -1 -12 5 -16 6 -4
8 -11 5 -16 -4 -5 -1 -9 4 -9 6 0 10 -3 9 -7 -4 -13 25 -82 32 -78 4 3 6 -7 4
-20 -1 -14 2 -25 7 -25 5 0 8 -3 7 -7 -1 -9 9 -40 23 -65 5 -10 9 -22 9 -28 0
-6 8 -29 19 -53 30 -68 46 -111 43 -120 -1 -4 2 -7 6 -7 8 0 38 -90 34 -103
-1 -5 2 -6 8 -2 6 4 10 -4 10 -19 0 -14 4 -26 8 -26 4 0 8 -10 9 -22 1 -11 7
-24 14 -28 6 -4 9 -12 5 -18 -3 -6 0 -17 8 -25 8 -8 12 -17 9 -21 -3 -3 -1
-11 4 -18 9 -11 46 -102 49 -118 0 -3 9 -25 20 -50 10 -25 17 -49 16 -54 -2
-5 2 -12 8 -16 10 -6 17 -25 19 -53 1 -5 5 -5 11 -2 6 4 7 -1 3 -10 -3 -10 -1
-20 5 -24 6 -3 13 -18 16 -33 2 -14 9 -35 15 -46 6 -11 7 -22 4 -26 -3 -3 -1
-6 5 -6 9 0 19 -30 25 -67 0 -5 7 -14 14 -21 12 -12 17 -34 14 -54 0 -5 4 -8
10 -8 6 0 9 -6 6 -12 -2 -7 3 -19 12 -26 9 -8 10 -11 4 -7 -9 4 -11 1 -7 -9 7
-18 3 -17 104 -19 41 0 78 -6 82 -11 5 -8 8 -7 8 1 0 9 19 11 40 3 15 -6 77
-4 92 2 9 5 20 4 23 -2 3 -5 11 -10 16 -10 6 0 7 5 3 11 -5 8 -1 8 14 0 27
-14 35 -14 26 2 -6 9 -4 9 7 1 20 -15 59 -15 59 -1 0 7 5 4 11 -5 7 -13 15
-15 33 -8 15 5 27 5 35 -3 8 -8 11 -8 11 2 0 7 4 10 9 6 6 -3 70 -6 144 -8 78
-1 133 -6 130 -11 -4 -5 -1 -6 6 -2 22 14 63 17 55 5 -5 -8 -3 -9 6 -4 18 11
54 12 61 2 3 -4 18 -3 32 2 22 9 27 8 27 -5 0 -14 2 -14 16 0 18 19 28 21 18
4 -5 -8 -2 -9 11 -5 9 4 25 2 33 -5 12 -10 14 -10 8 -1 -5 10 1 12 21 10 16
-2 34 -7 41 -11 7 -4 12 -2 12 4 0 6 8 9 18 6 10 -4 77 -7 148 -7 71 -1 134
-6 141 -11 7 -5 14 -5 18 2 9 14 28 13 19 -2 -6 -10 -4 -10 7 -1 17 17 32 17
23 1 -5 -9 -2 -9 9 1 13 10 17 10 17 1 0 -10 3 -10 15 0 12 10 15 10 15 0 0
-10 3 -10 15 0 12 10 15 10 15 0 0 -10 4 -10 16 1 10 8 18 9 22 2 8 -11 41
-11 59 0 6 4 14 4 17 -1 3 -5 50 -9 106 -10 56 -1 105 -4 110 -7 4 -3 11 1 13
7 4 10 6 9 6 -1 1 -11 4 -11 16 -1 8 7 15 8 15 3 0 -6 12 -9 27 -7 15 1 34 -3
42 -9 12 -9 13 -9 8 0 -6 9 2 12 28 11 19 -1 35 -6 35 -12 0 -7 3 -8 8 -1 8
12 27 13 37 3 4 -4 17 -2 28 3 14 8 22 8 27 -1 10 -15 21 -15 31 2 7 10 9 10
9 0 0 -10 5 -10 21 -1 15 8 19 8 15 0 -4 -6 0 -11 9 -11 10 0 13 5 9 13 -6 9
-4 9 7 2 8 -6 66 -11 134 -10 69 0 123 -4 127 -10 5 -6 8 -4 8 5 0 13 1 13 10
0 9 -13 10 -13 10 0 0 13 1 13 10 0 8 -12 11 -13 19 -1 5 8 11 9 15 3 3 -5 17
-7 32 -4 16 3 29 -1 35 -9 5 -8 9 -9 9 -3 0 6 11 12 25 12 16 0 22 -5 18 -12
-4 -6 1 -5 11 3 15 13 19 13 27 0 7 -12 9 -12 9 1 0 10 3 11 12 2 7 -7 17 -8
30 -1 13 7 18 6 18 -3 0 -10 2 -10 9 1 6 10 10 10 16 1 6 -9 10 -9 16 1 7 12
9 12 9 0 0 -11 3 -11 15 -1 8 7 15 8 15 3 0 -13 43 -11 52 2 5 7 8 6 8 -1 0
-6 35 -10 98 -10 53 1 103 -3 110 -8 7 -5 12 -5 12 1 0 5 9 9 20 9 11 0 20 -5
20 -11 0 -5 5 -3 10 5 5 8 10 11 10 5 0 -5 24 -10 53 -10 28 0 55 5 59 10 5 7
8 7 8 0 0 -6 59 -11 153 -12 125 -1 149 1 135 11 -10 7 -14 17 -10 21 4 5 2 5
-4 2 -6 -3 -20 3 -32 13 -12 11 -24 20 -28 20 -4 0 -14 8 -23 18 -9 9 -28 23
-43 31 -15 8 -25 18 -23 22 3 4 -4 11 -16 14 -12 4 -35 20 -51 36 -17 16 -34
26 -39 23 -5 -3 -9 2 -9 10 0 8 -5 18 -12 22 -7 4 -8 3 -4 -4 4 -7 3 -12 -3
-12 -5 0 -13 9 -16 20 -3 11 -13 20 -21 20 -8 0 -14 5 -14 10 0 6 -4 10 -10
10 -5 0 -19 8 -29 17 -32 29 -45 39 -55 40 -5 1 -12 5 -15 10 -9 12 -109 93
-115 93 -3 0 -15 8 -25 17 -37 33 -50 43 -61 43 -5 0 -10 7 -10 16 0 8 -4 13
-9 10 -4 -3 -16 3 -26 14 -10 11 -24 20 -32 20 -7 0 -13 7 -13 15 0 9 -6 12
-15 8 -10 -3 -15 0 -13 8 2 7 -2 13 -7 14 -11 0 -28 13 -70 53 -14 13 -25 20
-25 18 0 -3 -11 4 -24 15 -13 12 -26 20 -28 18 -1 -2 -15 9 -30 24 -15 15 -32
27 -38 27 -5 0 -10 7 -10 15 0 8 -4 14 -8 13 -10 -4 -58 29 -87 60 -12 12 -26
22 -31 22 -5 0 -21 11 -36 24 -14 14 -29 22 -32 19 -3 -4 -6 1 -6 10 0 9 -5
19 -12 23 -7 4 -8 3 -4 -4 5 -8 2 -10 -8 -6 -9 3 -13 10 -10 15 3 5 -2 9 -10
9 -9 0 -16 4 -16 8 0 4 -13 15 -28 24 -15 9 -43 30 -62 47 -19 17 -43 33 -52
37 -10 3 -18 12 -18 21 0 9 -6 13 -15 9 -8 -3 -15 -1 -15 4 0 5 -13 17 -29 26
-17 10 -27 22 -24 27 3 6 1 7 -4 4 -6 -4 -16 0 -23 8 -7 8 -17 12 -24 8 -6 -3
-8 -3 -4 2 7 8 -15 35 -29 35 -4 0 -20 11 -35 24 -14 14 -29 22 -32 19 -3 -4
-6 2 -6 12 0 10 -3 16 -6 12 -6 -5 -28 10 -66 46 -10 9 -21 17 -24 16 -3 0
-21 13 -39 29 -18 17 -36 28 -39 25 -3 -4 -6 -1 -6 6 0 7 -4 9 -10 6 -5 -3
-10 1 -10 9 0 9 -6 16 -13 16 -7 0 -20 9 -30 20 -9 11 -24 20 -32 20 -9 0 -14
3 -12 8 3 4 -13 18 -34 32 -21 13 -39 28 -39 32 0 4 -7 8 -15 8 -7 0 -19 8
-24 18 -6 9 -11 13 -11 7 0 -5 -7 1 -16 13 -8 12 -21 22 -27 22 -7 0 -19 9
-27 20 -8 11 -20 20 -27 20 -7 0 -13 3 -13 8 0 10 -72 58 -83 54 -5 -1 -6 1
-4 5 3 5 -1 14 -9 21 -8 7 -14 9 -14 5 0 -4 -10 3 -22 15 -13 12 -41 36 -63
52 -66 48 -79 58 -111 84 -17 14 -34 23 -38 21 -3 -3 -4 -2 -2 1 7 9 -17 33
-27 27 -4 -2 -7 -1 -6 4 1 4 -1 16 -4 26 -4 9 -10 25 -14 35 -3 9 -5 20 -5 25
1 4 -2 7 -8 7 -6 0 -9 3 -8 8 1 4 -4 18 -11 31 -11 19 -11 22 0 15 7 -4 3 6
-9 23 -12 17 -22 41 -22 52 0 12 -4 21 -10 21 -5 0 -10 11 -10 25 0 14 -5 25
-10 25 -6 0 -9 3 -9 8 1 4 0 10 -1 15 -1 4 -3 10 -5 15 -14 51 -18 61 -25 57
-5 -3 -7 2 -6 12 2 9 -6 35 -18 57 -11 23 -19 47 -18 54 2 6 -2 12 -9 12 -6 0
-9 6 -6 14 3 8 2 16 -3 18 -6 2 -11 15 -12 30 -1 15 -6 24 -10 22 -7 -5 -9 0
-8 21 0 3 -7 19 -15 35 -9 17 -12 30 -8 30 4 0 -2 7 -13 16 -10 8 -14 13 -7 9
9 -4 8 3 -2 21 -8 15 -12 31 -9 36 3 4 0 8 -6 8 -6 0 -9 4 -6 9 4 5 1 11 -4
13 -6 2 -12 13 -13 26 0 12 -4 22 -7 22 -3 0 -6 10 -7 22 -1 11 -7 25 -14 29
-7 4 -9 14 -6 23 4 9 1 16 -6 16 -7 0 -14 12 -15 27 -1 15 -8 30 -15 35 -6 4
-8 8 -4 8 4 0 2 10 -5 23 -7 12 -11 28 -10 35 2 6 -2 12 -8 12 -6 0 -8 5 -5
10 3 6 1 10 -5 10 -6 0 -10 8 -9 18 2 9 -3 28 -11 42 -8 14 -13 28 -12 33 1 4
-4 7 -10 7 -9 0 -8 4 2 10 8 5 10 10 3 10 -10 0 -38 56 -34 73 0 4 -3 7 -7 7
-5 0 -9 7 -10 15 -1 8 -3 22 -4 30 -1 8 -5 15 -10 15 -4 0 -8 9 -8 19 0 11 -5
23 -11 26 -5 4 -8 12 -6 18 2 7 -3 18 -12 25 -13 11 -13 12 -1 6 12 -6 13 -4
3 7 -7 7 -13 21 -13 31 0 10 -4 18 -8 18 -4 0 -14 20 -21 45 -7 25 -17 45 -22
45 -4 0 -6 9 -4 20 2 11 -1 20 -6 20 -6 0 -7 4 -4 10 3 5 1 10 -5 10 -6 0 -9
4 -6 9 3 4 -1 16 -8 27 -8 10 -12 24 -9 30 2 7 -1 15 -8 20 -8 5 -10 3 -4 -6
5 -8 4 -11 -3 -6 -6 4 -9 13 -6 20 3 8 -2 29 -11 46 -9 18 -18 41 -20 51 -2
11 -11 34 -20 52 -9 18 -18 40 -20 50 -2 10 -11 32 -20 49 -8 17 -15 37 -15
45 0 7 -4 13 -8 13 -4 0 -9 10 -9 22 -1 13 -7 24 -12 26 -5 2 -7 10 -4 18 3 8
-1 14 -8 14 -7 0 -10 3 -6 6 3 4 -2 23 -13 44 -11 21 -16 40 -13 44 4 3 1 6
-5 6 -7 0 -11 3 -10 8 1 4 -4 23 -11 42 -8 19 -15 41 -17 49 -1 8 -6 17 -11
20 -4 3 -10 17 -12 31 -1 14 -7 27 -12 30 -5 3 -10 15 -12 25 -2 11 -9 30 -15
43 -7 12 -11 22 -8 22 3 0 -1 12 -9 27 -8 15 -11 31 -8 36 3 6 1 7 -5 3 -11
-6 -18 19 -13 47 0 4 -3 7 -8 7 -5 0 -15 20 -22 45 -7 25 -18 45 -23 45 -5 0
-7 3 -3 6 3 4 0 19 -8 34 -8 15 -11 30 -8 34 4 3 1 6 -6 6 -8 0 -11 7 -7 15 3
8 1 15 -5 15 -6 0 -7 5 -4 10 3 6 1 10 -5 10 -7 0 -10 7 -6 15 3 8 1 15 -4 15
-6 0 -9 3 -8 8 1 4 -6 25 -15 46 -10 22 -20 50 -23 63 -4 13 -10 23 -16 23 -5
0 -7 4 -4 8 2 4 -4 26 -14 49 -10 23 -16 44 -12 47 3 3 0 6 -6 6 -7 0 -12 11
-12 25 0 14 -4 25 -10 25 -5 0 -10 11 -10 24 0 13 -5 26 -10 28 -6 2 -12 13
-13 26 0 12 -5 22 -10 22 -5 0 -7 6 -4 14 3 7 0 19 -6 25 -7 7 -12 15 -13 19
0 4 -6 20 -12 35 -7 16 -10 33 -6 38 3 5 -1 9 -8 9 -8 0 -15 12 -16 27 -1 15
-8 30 -15 35 -6 4 -9 8 -4 8 4 0 1 13 -7 29 -9 16 -12 31 -9 35 4 3 1 6 -6 6
-7 0 -10 4 -6 9 3 5 1 12 -5 16 -6 4 -8 11 -5 16 4 5 1 9 -5 9 -6 0 -8 5 -5
10 3 6 2 10 -2 10 -8 0 -12 15 -15 57 -1 7 -4 10 -8 8 -4 -3 -15 20 -25 50 -9
30 -21 53 -26 49 -5 -3 -6 2 -3 11 4 8 1 22 -6 30 -7 8 -9 15 -5 15 4 0 0 11
-9 25 -9 14 -14 30 -11 35 3 6 1 10 -5 10 -6 0 -8 5 -5 10 3 6 1 10 -5 10 -6
0 -8 5 -5 10 3 6 1 10 -5 10 -6 0 -8 5 -5 10 4 6 1 17 -5 25 -7 8 -9 15 -4 15
4 0 -1 7 -12 16 -10 8 -13 13 -7 9 9 -4 11 -1 7 9 -3 9 -10 16 -14 16 -5 0 -7
9 -5 20 2 11 0 20 -5 20 -9 0 -25 39 -22 53 1 4 -2 7 -8 7 -5 0 -7 6 -4 14 3
8 0 17 -5 21 -6 3 -9 11 -6 16 4 5 1 9 -6 9 -6 0 -9 8 -6 20 3 11 0 18 -7 17
-6 -1 -11 10 -10 26 0 16 -5 27 -14 27 -7 0 -11 4 -8 9 8 12 -4 42 -14 36 -5
-3 -7 3 -5 12 1 10 -1 23 -6 29 -5 6 -10 21 -13 35 -2 13 -8 23 -12 22 -8 -1
-12 15 -17 69 -1 9 -5 14 -9 12 -4 -3 -9 0 -9 5 -2 16 -4 23 -17 54 -7 16 -12
33 -12 38 0 5 -4 9 -10 9 -5 0 -9 3 -9 8 4 22 -2 42 -11 37 -6 -3 -7 1 -4 10
4 8 -1 26 -10 40 -9 13 -16 33 -16 45 0 11 -4 20 -10 20 -5 0 -10 9 -10 19 0
11 -6 26 -13 33 -8 7 -12 18 -10 24 2 6 -3 23 -11 39 -8 16 -13 32 -10 37 3 4
0 8 -5 8 -6 0 -11 9 -11 20 0 11 -5 20 -11 20 -5 0 -7 5 -4 10 3 6 1 10 -5 10
-6 0 -8 5 -4 11 3 6 2 14 -4 18 -5 3 -12 17 -13 31 -2 14 -8 28 -12 31 -4 3
-9 16 -10 27 -1 12 -5 22 -9 22 -4 0 -8 9 -8 20 0 11 -5 20 -11 20 -6 0 -9 6
-6 13 3 7 -1 21 -9 31 -7 11 -11 23 -8 27 3 5 0 9 -5 9 -6 0 -10 3 -9 8 3 13
-14 62 -21 58 -3 -2 -7 8 -8 22 0 15 -6 28 -12 30 -5 2 -8 9 -5 17 3 7 0 16
-5 20 -6 3 -9 11 -6 16 4 5 1 9 -5 9 -6 0 -8 5 -5 10 3 6 1 10 -6 10 -7 0 -10
3 -6 6 3 4 0 19 -9 35 -8 16 -11 29 -7 29 4 0 -2 7 -13 15 -12 9 -14 14 -6 15
10 0 10 5 -2 22 -9 12 -16 30 -16 40 0 10 -4 18 -10 18 -5 0 -10 11 -10 24 0
14 -4 28 -10 31 -5 3 -10 15 -10 26 0 10 -5 19 -12 19 -6 0 -9 3 -5 6 3 4 -3
25 -15 48 -11 22 -21 43 -21 46 0 15 -12 47 -32 86 -12 24 -17 40 -11 37 6 -4
5 1 -2 10 -8 9 -11 21 -7 27 3 5 0 10 -8 10 -9 0 -13 9 -12 25 2 14 0 23 -4
21 -4 -3 -13 12 -20 32 -7 20 -16 46 -21 57 -13 33 -23 59 -26 74 -1 8 -8 17
-15 21 -6 4 -9 12 -5 18 3 6 0 17 -8 25 -8 8 -12 17 -9 21 3 3 0 12 -7 21 -7
8 -9 15 -5 15 4 0 2 6 -4 13 -6 8 -8 17 -4 20 3 4 1 7 -6 7 -7 0 -9 5 -6 10 3
6 2 10 -3 10 -9 0 -26 55 -23 73 0 4 -4 7 -9 7 -6 0 -10 9 -10 20 0 11 -4 20
-10 20 -5 0 -7 7 -4 15 4 8 1 15 -6 15 -7 0 -10 7 -6 15 3 8 1 15 -5 15 -6 0
-8 4 -4 9 3 5 1 12 -5 16 -6 4 -8 11 -5 16 4 5 1 9 -4 9 -6 0 -10 3 -9 8 1 4
-4 20 -10 35 -7 16 -12 33 -12 38 0 5 -4 9 -9 9 -5 0 -7 9 -4 20 3 11 0 20 -6
20 -6 0 -11 9 -11 20 0 11 -4 20 -8 20 -4 0 -8 10 -9 22 -1 11 -6 24 -10 27
-4 3 -10 15 -11 26 -2 11 -9 23 -15 27 -7 4 -8 8 -3 8 5 0 2 8 -5 17 -12 15
-12 16 1 8 11 -6 10 -3 -2 12 -10 11 -18 27 -18 36 0 9 -4 17 -8 17 -4 0 -9
10 -9 22 -1 13 -7 24 -12 26 -5 2 -7 10 -4 18 3 8 0 14 -7 14 -7 0 -10 6 -7
13 2 6 -2 18 -9 25 -8 7 -14 10 -14 7 0 -3 -11 5 -25 19 -14 14 -37 29 -50 32
-14 3 -23 10 -20 14 3 5 -3 11 -12 14 -10 3 -29 16 -43 28 -14 13 -32 24 -40
26 -7 2 -22 13 -32 24 -10 12 -18 17 -18 12 0 -5 -5 -1 -11 9 -5 9 -17 17 -24
17 -8 0 -15 5 -15 10 0 6 -6 10 -14 10 -8 0 -17 7 -20 16 -3 8 -10 13 -14 10
-5 -3 -19 6 -32 19 -13 13 -26 22 -30 20 -5 -3 -10 2 -14 10 -3 8 -10 15 -16
15 -6 0 -16 5 -23 10 -44 37 -61 50 -66 50 -3 0 -20 12 -36 28 -16 15 -30 25
-31 22 -2 -3 -14 5 -28 18 -15 12 -31 22 -36 22 -6 0 -10 5 -10 10 0 6 -5 10
-11 10 -7 0 -20 9 -30 21 -9 11 -20 20 -23 20 -19 -3 -27 0 -22 7 3 5 -10 15
-29 22 -19 7 -32 17 -29 22 3 4 -1 8 -8 8 -7 0 -25 11 -40 24 -14 14 -29 22
-32 19 -3 -4 -6 -1 -6 5 0 7 -6 12 -12 12 -7 0 -28 14 -45 31 -18 16 -33 27
-33 24 0 -4 -7 0 -15 7 -33 30 -45 38 -55 38 -5 0 -10 4 -10 8 0 5 -16 17 -35
28 -19 10 -35 21 -35 25 0 4 -9 9 -21 12 -13 4 -18 10 -13 18 4 8 3 10 -4 5
-7 -4 -12 -2 -12 4 0 6 -4 9 -9 5 -5 -3 -16 4 -24 15 -7 11 -17 17 -21 13 -3
-4 -13 2 -21 13 -8 10 -15 16 -15 12 0 -5 -8 0 -18 10 -42 39 -64 52 -75 46
-7 -4 -9 -4 -5 1 8 8 -33 45 -51 45 -6 0 -11 5 -11 10 0 6 -7 10 -15 10 -9 0
-18 7 -21 15 -4 8 -12 15 -19 15 -6 0 -20 9 -30 20 -10 11 -22 17 -26 14 -5
-3 -9 2 -9 11 0 9 -4 14 -9 11 -4 -3 -16 3 -26 14 -10 11 -24 20 -32 20 -7 0
-13 4 -13 9 0 5 -13 14 -30 21 -16 7 -27 16 -24 21 3 5 -2 9 -10 9 -8 0 -26
11 -40 25 -14 14 -32 25 -41 25 -8 0 -15 5 -15 10 0 6 -11 15 -25 22 -13 6
-22 15 -18 21 3 6 1 7 -6 3 -6 -4 -21 2 -34 14 -12 12 -25 21 -29 21 -5 -1
-16 6 -25 15 -40 36 -79 64 -87 64 -5 0 -22 13 -37 30 -16 16 -29 28 -29 25 0
-7 -50 24 -77 49 -13 11 -23 17 -23 13 0 -3 -12 5 -26 18 -15 14 -31 22 -37
18 -5 -3 -7 -1 -4 4 7 10 -20 28 -35 25 -5 -1 -8 5 -8 14 0 8 -4 12 -10 9 -5
-3 -10 -1 -10 4 0 6 -7 11 -15 11 -8 0 -15 5 -15 10 0 6 -6 10 -14 10 -8 0
-16 4 -18 8 -4 12 -95 72 -107 72 -6 0 -11 7 -11 15 0 8 -9 15 -20 15 -11 0
-20 7 -20 16 0 8 -4 12 -10 9 -5 -3 -10 -1 -10 5 0 6 -4 8 -10 5 -5 -3 -10 -1
-10 4 0 6 -7 11 -16 11 -8 0 -12 5 -9 10 3 6 -3 10 -14 10 -12 0 -21 -2 -21
-5z"/>
</g>
</svg>
